<svg width="105" height="26" viewBox="0 0 105 26" fill="none" xmlns="http://www.w3.org/2000/svg">
<g clip-path="url(#clip0_2902_7050)">
<path fill-rule="evenodd" clip-rule="evenodd" d="M32.6671 17.7663C31.7108 16.039 30.0823 15.3481 28.187 15.3481C25.4324 15.3481 23.2391 17.293 23.2391 20.5817C23.2391 23.9256 25.3181 25.8117 28.2806 25.8117C29.1898 25.8108 30.0819 25.5659 30.8635 25.1027C31.6451 24.6396 32.2872 23.9752 32.7225 23.1794L30.6436 22.1155C30.1724 23.2347 29.4621 23.5698 28.5647 23.5698C27.0089 23.5698 26.2986 22.2813 26.2986 20.5817C26.2986 18.8821 26.8981 17.5935 28.5647 17.5935C28.9752 17.617 29.3703 17.7578 29.7027 17.9992C30.0351 18.2406 30.2908 18.5722 30.4392 18.9546L32.6671 17.7663Z" fill="#7C7D82"/>
<path fill-rule="evenodd" clip-rule="evenodd" d="M38.0271 17.5799C39.6937 17.5799 40.4075 18.8684 40.4075 20.4575C40.4075 22.2676 39.6937 23.5665 38.0271 23.5665C36.3605 23.5665 35.6467 22.278 35.6467 20.5784C35.6467 18.8788 36.357 17.5799 38.0271 17.5799ZM38.0271 15.3345C34.9087 15.3345 32.7224 17.2241 32.7224 20.568C32.7224 23.9119 34.9157 25.7981 38.0271 25.7981C41.1386 25.7981 43.3284 23.9119 43.3284 20.568C43.3284 17.2241 41.1386 15.3345 38.0271 15.3345Z" fill="#7C7D82"/>
<path fill-rule="evenodd" clip-rule="evenodd" d="M43.9277 25.5388H46.8521V19.3518C46.8521 18.4571 47.2263 17.6902 48.4078 17.6902C49.5339 17.6902 49.8319 18.3431 49.8319 19.3173V25.5353H52.7563V19.4278C52.7563 18.4191 53.2621 17.7006 54.2358 17.7006C55.3411 17.7006 55.7361 18.3362 55.7361 19.7387V25.5388H58.6604V17.939C58.6604 15.659 56.5607 15.3205 55.5871 15.3205C54.9896 15.3062 54.3957 15.4168 53.8436 15.6453C53.2916 15.8737 52.7937 16.215 52.3821 16.647C52.0876 16.2233 51.6914 15.8799 51.2296 15.6481C50.7678 15.4164 50.2551 15.3038 49.7384 15.3205C48.8375 15.3205 47.6005 15.583 46.8521 16.4604V15.5968H43.9277V25.5388Z" fill="#7C7D82"/>
<path fill-rule="evenodd" clip-rule="evenodd" d="M59.5963 25.5389H62.5172V19.3519C62.5172 18.4572 62.8948 17.6903 64.0729 17.6903C65.251 17.6903 65.4866 18.3432 65.4866 19.3173V25.5354H68.4109V19.4279C68.4109 18.4192 68.9168 17.7007 69.8939 17.7007C70.9992 17.7007 71.3907 18.3363 71.3907 19.7388V25.5389H74.3151V17.939C74.3151 15.6591 72.2154 15.3205 71.2417 15.3205C70.6443 15.3064 70.0504 15.4172 69.4984 15.6456C68.9464 15.8741 68.4485 16.2152 68.0367 16.647C67.7425 16.2231 67.3464 15.8795 66.8845 15.6478C66.4226 15.416 65.9098 15.3035 65.393 15.3205C64.4956 15.3205 63.2586 15.5831 62.5068 16.4605V15.5969H59.5963V25.5389Z" fill="#7C7D82"/>
<path fill-rule="evenodd" clip-rule="evenodd" d="M80.226 17.5799C81.8961 17.5799 82.6064 18.8684 82.6064 20.4575C82.6064 22.2676 81.9134 23.5665 80.226 23.5665C78.5386 23.5665 77.8456 22.278 77.8456 20.5784C77.8456 18.8788 78.5594 17.5799 80.226 17.5799ZM80.226 15.3345C77.1076 15.3345 74.9247 17.2241 74.9247 20.568C74.9247 23.9119 77.1145 25.7981 80.226 25.7981C83.3375 25.7981 85.5308 23.9119 85.5308 20.568C85.5308 17.2241 83.3375 15.3345 80.226 15.3345Z" fill="#7C7D82"/>
<path fill-rule="evenodd" clip-rule="evenodd" d="M86.3174 25.539H89.2417V19.352C89.2417 18.4573 89.616 17.6904 90.7975 17.6904C91.9201 17.6904 92.2216 18.3433 92.2216 19.3175V25.5355H95.1459V18.1948C95.1459 16.699 94.4876 15.3345 92.128 15.3345C91.2271 15.3345 89.9902 15.597 89.2417 16.4744V15.597H86.3174V25.539Z" fill="#7C7D82"/>
<path fill-rule="evenodd" clip-rule="evenodd" d="M104.907 16.775C103.614 15.8717 102.081 15.3705 100.503 15.3345C98.4793 15.3345 96.286 16.3086 96.286 18.8131C96.286 22.3436 102.176 21.1103 102.176 22.6614C102.176 23.5561 101.071 23.6701 100.582 23.6701C99.252 23.6701 98.3338 23.1278 97.4364 22.2676L95.6312 23.8394C97.0933 25.1832 98.3303 25.7981 100.503 25.7981C102.675 25.7981 105.007 24.8654 105.007 22.2503C105.007 18.5299 99.1168 19.9324 99.1168 18.2328C99.1168 17.7284 99.64 17.4659 100.371 17.4659C101.289 17.4659 102.544 17.839 103.126 18.5299L104.907 16.775Z" fill="#7C7D82"/>
<path fill-rule="evenodd" clip-rule="evenodd" d="M32.6671 6.32487C31.7108 4.59763 30.0823 3.90674 28.187 3.90674C25.4324 3.90674 23.2391 5.84124 23.2391 9.1299C23.2391 12.4773 25.3181 14.3634 28.2806 14.3634C29.19 14.3618 30.0823 14.1162 30.8638 13.6524C31.6454 13.1887 32.2874 12.5239 32.7225 11.7277L30.6436 10.6637C30.1724 11.7864 29.4621 12.1215 28.5647 12.1215C27.0089 12.1215 26.2986 10.8329 26.2986 9.1299C26.2986 7.42684 26.8981 6.14178 28.5647 6.14178C28.9777 6.16652 29.3747 6.31025 29.7075 6.55552C30.0402 6.8008 30.2944 7.13708 30.4392 7.52357L32.6671 6.32487Z" fill="#7C7D82"/>
<path fill-rule="evenodd" clip-rule="evenodd" d="M33.3808 14.1013H36.3052V8.34612C36.3052 7.24414 36.9981 6.94706 38.7306 6.73979L39.0494 6.70179V4.12476C38.0486 4.16608 37.0881 4.5297 36.3121 5.1611V4.16275H33.3808V14.1013Z" fill="#7C7D82"/>
<path fill-rule="evenodd" clip-rule="evenodd" d="M48.9899 9.72752C48.9691 6.67031 47.7321 3.90674 44.0974 3.90674C41.0622 3.90674 39.205 5.92415 39.205 9.43389C39.205 12.2355 41.0033 14.3669 44.0974 14.3669C46.3288 14.3669 47.9088 13.4894 48.9483 11.6033L46.7377 10.4702C45.8957 11.6655 45.3898 12.2251 44.3123 12.2251C43.3767 12.2251 42.1571 11.6275 42.1398 9.72061L48.9899 9.72752ZM42.0913 7.93465C42.1185 7.42554 42.3386 6.94574 42.7072 6.59235C43.0758 6.23897 43.5653 6.0384 44.0767 6.03124C44.3362 6.01452 44.5965 6.05156 44.841 6.14002C45.0856 6.22848 45.3091 6.36644 45.4975 6.54524C45.686 6.72403 45.8353 6.93977 45.936 7.17889C46.0367 7.41801 46.0867 7.67533 46.0828 7.93465H42.0913Z" fill="#7C7D82"/>
<path fill-rule="evenodd" clip-rule="evenodd" d="M55.6948 9.95206C55.6948 11.4686 54.8321 12.232 53.6887 12.232C52.9957 12.232 52.3235 11.8866 52.3235 11.1128C52.3235 10.339 52.9957 10.0281 53.7268 9.82424L55.6948 9.26117V9.95206ZM58.5083 6.7774C58.4875 4.53545 56.7828 3.90674 54.0525 3.90674C52.7012 3.90674 50.0401 4.16928 49.9466 7.01576H52.7566C52.9091 6.02778 53.356 5.68924 54.295 5.68924C55.0816 5.68924 55.681 6.00706 55.681 6.75322V7.57539L54.6138 7.72738C51.4261 8.17646 49.4962 9.0159 49.4962 11.4064C49.4962 13.3133 50.9202 14.36 52.8328 14.36C53.8723 14.36 55.3449 13.8556 55.83 13.0714H55.8681C55.8857 13.4235 55.9486 13.7717 56.0552 14.1078H58.7543C58.5442 13.4379 58.4562 12.7359 58.4945 12.0351L58.5083 6.7774Z" fill="#7C7D82"/>
<path fill-rule="evenodd" clip-rule="evenodd" d="M65.3825 4.34907H63.65V1.48877H60.7256V4.36634H59.3016V6.15921H60.7256V11.3755C60.7256 12.8125 61.0721 14.3636 63.5738 14.3636C64.2113 14.3636 65.0741 14.2876 65.4483 14.2496V11.9524C65.1562 11.9867 64.8624 12.0052 64.5682 12.0076C64.0415 12.0076 63.65 11.8038 63.65 11.0197V6.14194H65.3825V4.34907Z" fill="#7C7D82"/>
<path fill-rule="evenodd" clip-rule="evenodd" d="M66.4842 4.16251V14.101H69.4051V4.16251H66.4842ZM69.4051 3.0398V0.797852H66.4842V3.0398H69.4051Z" fill="#7C7D82"/>
<path fill-rule="evenodd" clip-rule="evenodd" d="M73.3415 14.1009H76.2832L79.6961 4.16235H76.5847L74.8592 11.1853H74.821L73.099 4.16235H69.9667L73.3415 14.1009Z" fill="#7C7D82"/>
<path fill-rule="evenodd" clip-rule="evenodd" d="M89.1376 9.72752C89.1168 6.67031 87.8798 3.90674 84.2451 3.90674C81.2099 3.90674 79.3458 5.91724 79.3458 9.43389C79.3458 12.2355 81.1441 14.3669 84.2382 14.3669C86.4696 14.3669 88.0496 13.4894 89.0717 11.6033L86.8889 10.4702C86.0434 11.6655 85.5376 12.2251 84.4634 12.2251C83.5279 12.2251 82.3083 11.6275 82.291 9.72061L89.1376 9.72752ZM82.239 7.93465C82.2662 7.42554 82.4863 6.94574 82.8549 6.59235C83.2235 6.23897 83.713 6.0384 84.2244 6.03124C84.4825 6.01699 84.7409 6.05587 84.9834 6.14544C85.2259 6.23501 85.4473 6.37337 85.6338 6.5519C85.8204 6.73043 85.9681 6.94532 86.0677 7.1832C86.1674 7.42108 86.2169 7.67687 86.2132 7.93465H82.239Z" fill="#7C7D82"/>
<path fill-rule="evenodd" clip-rule="evenodd" d="M10.9492 3.73457C9.51669 3.71562 8.09536 3.98763 6.77174 4.53401C5.44812 5.0804 4.24994 5.88972 3.25017 6.91268C1.178 8.97135 0.00921551 11.7653 0.000101438 14.6818C-0.00613709 16.1155 0.27544 17.536 0.828251 18.8596C1.38106 20.1832 2.19393 21.3831 3.21898 22.3887C4.22812 23.4119 5.43116 24.225 6.7582 24.7807C8.08525 25.3363 9.50982 25.6235 10.9492 25.6255C13.897 25.6152 16.7204 24.44 18.8006 22.3576C19.8136 21.3546 20.6122 20.1574 21.1482 18.8381C21.6842 17.5188 21.9464 16.1049 21.919 14.6818C21.9319 13.2415 21.6571 11.813 21.1105 10.4797C20.5639 9.14635 19.7565 7.93487 18.7354 6.91589C17.7144 5.89691 16.5 5.09081 15.1632 4.54461C13.8263 3.99841 12.3938 3.72305 10.9492 3.73457V3.73457ZM10.9803 5.71398C12.1624 5.70982 13.3336 5.93963 14.4259 6.39009C15.5183 6.84054 16.5101 7.50268 17.3439 8.33812C18.1776 9.17357 18.8368 10.1657 19.2831 11.257C19.7295 12.3483 19.9541 13.5171 19.944 14.6956C19.9678 15.8586 19.7532 17.0142 19.3136 18.0917C18.8739 19.1692 18.2183 20.1459 17.3869 20.962C15.6884 22.6599 13.3856 23.6197 10.9803 23.6323C9.80443 23.6327 8.64024 23.3995 7.55573 22.9464C6.47122 22.4932 5.48812 21.8292 4.66384 20.9931C3.82178 20.1693 3.15159 19.1876 2.69191 18.1044C2.23222 17.0211 1.99213 15.8579 1.98548 14.6818C2.00091 12.2924 2.96375 10.0062 4.66384 8.3221C5.48266 7.48091 6.46541 6.81559 7.55167 6.36706C8.63793 5.91854 9.80473 5.69629 10.9803 5.71398V5.71398Z" fill="#7C7D82"/>
<path fill-rule="evenodd" clip-rule="evenodd" d="M10.838 12.8609C10.2177 11.7347 9.16095 11.2856 7.93092 11.2856C6.14303 11.2856 4.71896 12.5465 4.71896 14.6814C4.71896 16.8163 6.05988 18.0702 7.99328 18.0702C8.58342 18.069 9.16238 17.9097 9.66954 17.6088C10.1767 17.308 10.5934 16.8768 10.8761 16.3603L9.51091 15.6694C9.42621 15.9556 9.24697 16.2048 9.00229 16.3766C8.75762 16.5484 8.46187 16.6328 8.16306 16.6159C7.15132 16.6159 6.69049 15.7799 6.69049 14.6779C6.69049 13.576 7.07855 12.7365 8.16306 12.7365C8.42969 12.7514 8.68631 12.8428 8.90207 12.9997C9.11782 13.1566 9.28352 13.3723 9.37924 13.6209L10.838 12.8609Z" fill="#7C7D82"/>
<path fill-rule="evenodd" clip-rule="evenodd" d="M17.1722 12.8609C16.5519 11.7347 15.4951 11.2856 14.2651 11.2856C12.4738 11.2856 11.0532 12.5431 11.0532 14.6814C11.0532 16.8197 12.3941 18.0702 14.3275 18.0702C14.9176 18.069 15.4966 17.9097 16.0037 17.6088C16.5109 17.308 16.9276 16.8768 17.2103 16.3603L15.8486 15.6694C15.7626 15.9555 15.5826 16.2045 15.3375 16.3762C15.0924 16.5479 14.7964 16.6323 14.4973 16.6159C13.489 16.6159 13.0247 15.7799 13.0247 14.6779C13.0247 13.576 13.4128 12.7365 14.4973 12.7365C14.7639 12.7514 15.0205 12.8428 15.2363 12.9997C15.452 13.1566 15.6177 13.3723 15.7134 13.6209L17.1722 12.8609Z" fill="#7C7D82"/>
</g>
<defs>
<clipPath id="clip0_2902_7050">
<rect width="105" height="25" fill="white" transform="translate(0 0.797852)"/>
</clipPath>
</defs>
</svg>
