<svg width="152" height="40" viewBox="0 0 152 40" fill="none" xmlns="http://www.w3.org/2000/svg">
<path d="M13.4664 27.8211C20.6276 27.8211 26.4329 22.0158 26.4329 14.8547C26.4329 14.0431 26.3583 13.2489 26.2156 12.4786C25.4454 12.336 24.6512 12.2614 23.8396 12.2614C16.6784 12.2614 10.8732 18.0667 10.8732 25.2278C10.8732 26.0394 10.9477 26.8336 11.0904 27.6039C11.8607 27.7466 12.6548 27.8211 13.4664 27.8211Z" fill="#175CD3"/>
<path fill-rule="evenodd" clip-rule="evenodd" d="M11.0904 27.6039C5.06398 26.4879 0.5 21.2043 0.5 14.8547C0.5 7.69352 6.30527 1.88824 13.4664 1.88824C19.816 1.88824 25.0996 6.45222 26.2157 12.4786C25.4454 12.336 24.6512 12.2614 23.8396 12.2614C16.6784 12.2614 10.8732 18.0667 10.8732 25.2278C10.8732 26.0394 10.9477 26.8336 11.0904 27.6039Z" fill="#1570EF"/>
<path fill-rule="evenodd" clip-rule="evenodd" d="M13.4664 27.8211C20.6276 27.8211 26.4328 22.0158 26.4328 14.8546C26.4328 14.043 26.3583 13.2489 26.2156 12.4786C32.242 13.5946 36.806 18.8782 36.806 25.2278C36.806 32.389 31.0007 38.1942 23.8395 38.1942C17.49 38.1942 12.2064 33.6302 11.0903 27.6039C11.8606 27.7465 12.6548 27.8211 13.4664 27.8211Z" fill="#2E90FA"/>
<path d="M61.7482 24.0877C61.2862 25.5818 60.4775 26.6984 59.3223 27.4378C58.1672 28.1617 56.8194 28.5236 55.2792 28.5236C53.7697 28.5236 52.4605 28.2079 51.3515 27.5764C50.2579 26.9449 49.4108 26.0438 48.8101 24.8732C48.2248 23.7026 47.9322 22.301 47.9322 20.6683C47.9322 19.0357 48.2325 17.6341 48.8332 16.4635C49.4339 15.2929 50.281 14.3918 51.3746 13.7603C52.4682 13.1288 53.7543 12.8131 55.233 12.8131C56.7886 12.8131 58.1209 13.1442 59.2299 13.8065C60.3543 14.4534 61.1244 15.4392 61.5403 16.7638L58.6523 17.9883C58.3905 17.0642 57.99 16.4095 57.4509 16.0245C56.9118 15.624 56.2187 15.4238 55.3716 15.4238C54.1086 15.4238 53.0997 15.8782 52.345 16.7869C51.6057 17.6803 51.236 18.9741 51.236 20.6683C51.236 22.3472 51.5903 23.641 52.2988 24.5498C53.0073 25.4585 54.0316 25.9129 55.3716 25.9129C56.2033 25.9129 56.9195 25.6896 57.5202 25.2429C58.1363 24.7962 58.5676 24.1185 58.8141 23.2098L61.7482 24.0877Z" fill="#101828"/>
<path d="M65.7364 15.0772C64.4271 15.0772 63.7725 14.515 63.7725 13.3907C63.7725 12.2509 64.4271 11.681 65.7364 11.681C67.0456 11.681 67.7002 12.2509 67.7002 13.3907C67.7002 14.515 67.0456 15.0772 65.7364 15.0772ZM67.3074 16.7407V28.2926H64.1422V16.7407H67.3074Z" fill="#101828"/>
<path d="M70.6627 28.2926V16.7407H73.4121L73.62 19.0049C73.9126 18.2193 74.3516 17.6109 74.9369 17.1797C75.5376 16.733 76.2923 16.5097 77.2011 16.5097C77.7402 16.5097 78.156 16.5944 78.4487 16.7638L78.079 19.4207C77.925 19.3745 77.7325 19.336 77.5014 19.3052C77.2858 19.259 77.0009 19.2359 76.6466 19.2359C76.1691 19.2359 75.7147 19.3514 75.2835 19.5825C74.8676 19.7981 74.521 20.137 74.2438 20.599C73.9666 21.0457 73.8279 21.6156 73.8279 22.3087V28.2926H70.6627Z" fill="#101828"/>
<path d="M85.4286 16.5097C86.9688 16.5097 88.1625 16.8408 89.0097 17.5031C89.8722 18.1654 90.4421 18.9664 90.7193 19.9059L87.7621 20.9687C87.454 19.5671 86.6916 18.8663 85.4748 18.8663C84.5968 18.8663 83.9114 19.1743 83.4185 19.7904C82.9411 20.4065 82.7023 21.323 82.7023 22.5398C82.7023 23.772 82.9488 24.6884 83.4416 25.2891C83.9499 25.8744 84.6353 26.1671 85.4979 26.1671C86.8379 26.1671 87.6388 25.4816 87.9007 24.1108L90.7656 25.035C90.5037 26.0669 89.9184 26.9064 89.0097 27.5533C88.1163 28.2002 86.9534 28.5236 85.521 28.5236C84.3196 28.5236 83.2645 28.2849 82.3558 27.8074C81.4624 27.3299 80.7693 26.6445 80.2764 25.7512C79.7835 24.8578 79.5371 23.7797 79.5371 22.5167C79.5371 21.2536 79.7835 20.1755 80.2764 19.2821C80.7847 18.3888 81.4778 17.7034 82.3558 17.2259C83.2491 16.7484 84.2734 16.5097 85.4286 16.5097Z" fill="#101828"/>
<path d="M98.4927 16.5097C99.6479 16.5097 100.672 16.7484 101.566 17.2259C102.459 17.7034 103.152 18.3888 103.645 19.2821C104.153 20.1755 104.407 21.2536 104.407 22.5167C104.407 23.7797 104.153 24.8578 103.645 25.7512C103.152 26.6445 102.459 27.3299 101.566 27.8074C100.672 28.2849 99.6479 28.5236 98.4927 28.5236C97.3221 28.5236 96.2901 28.2849 95.3968 27.8074C94.5188 27.3299 93.8257 26.6445 93.3174 25.7512C92.8246 24.8578 92.5781 23.7797 92.5781 22.5167C92.5781 21.2536 92.8246 20.1755 93.3174 19.2821C93.8257 18.3888 94.5188 17.7034 95.3968 17.2259C96.2901 16.7484 97.3221 16.5097 98.4927 16.5097ZM98.4927 18.8663C97.6302 18.8663 96.9524 19.1743 96.4596 19.7904C95.9821 20.3911 95.7433 21.2999 95.7433 22.5167C95.7433 23.7335 95.9821 24.6499 96.4596 25.266C96.9524 25.8667 97.6302 26.1671 98.4927 26.1671C99.3398 26.1671 100.002 25.8667 100.48 25.266C100.973 24.6499 101.219 23.7335 101.219 22.5167C101.219 21.2999 100.973 20.3911 100.48 19.7904C100.002 19.1743 99.3398 18.8663 98.4927 18.8663Z" fill="#101828"/>
<path d="M112.323 16.5097C113.479 16.5097 114.503 16.7484 115.396 17.2259C116.29 17.7034 116.983 18.3888 117.476 19.2821C117.984 20.1755 118.238 21.2536 118.238 22.5167C118.238 23.7797 117.984 24.8578 117.476 25.7512C116.983 26.6445 116.29 27.3299 115.396 27.8074C114.503 28.2849 113.479 28.5236 112.323 28.5236C111.153 28.5236 110.121 28.2849 109.227 27.8074C108.35 27.3299 107.656 26.6445 107.148 25.7512C106.655 24.8578 106.409 23.7797 106.409 22.5167C106.409 21.2536 106.655 20.1755 107.148 19.2821C107.656 18.3888 108.35 17.7034 109.227 17.2259C110.121 16.7484 111.153 16.5097 112.323 16.5097ZM112.323 18.8663C111.461 18.8663 110.783 19.1743 110.29 19.7904C109.813 20.3911 109.574 21.2999 109.574 22.5167C109.574 23.7335 109.813 24.6499 110.29 25.266C110.783 25.8667 111.461 26.1671 112.323 26.1671C113.171 26.1671 113.833 25.8667 114.31 25.266C114.803 24.6499 115.05 23.7335 115.05 22.5167C115.05 21.2999 114.803 20.3911 114.31 19.7904C113.833 19.1743 113.171 18.8663 112.323 18.8663Z" fill="#101828"/>
<path d="M124.005 11.681V24.7346C124.005 25.2737 124.098 25.6511 124.283 25.8667C124.468 26.0823 124.776 26.1902 125.207 26.1902C125.469 26.1902 125.684 26.1748 125.854 26.144C126.023 26.1131 126.239 26.0515 126.501 25.9591L126.223 28.0385C125.962 28.1925 125.63 28.308 125.23 28.385C124.845 28.4774 124.46 28.5236 124.075 28.5236C122.95 28.5236 122.126 28.2541 121.603 27.715C121.094 27.1605 120.84 26.2826 120.84 25.0812V11.681H124.005Z" fill="#101828"/>
<path d="M133.624 28.5236C131.807 28.5236 130.351 28 129.258 26.9526C128.164 25.8898 127.617 24.4112 127.617 22.5167C127.617 21.2536 127.864 20.1755 128.357 19.2821C128.85 18.3888 129.535 17.7034 130.413 17.2259C131.306 16.7484 132.323 16.5097 133.463 16.5097C134.633 16.5097 135.627 16.7484 136.443 17.2259C137.259 17.688 137.883 18.3272 138.314 19.1435C138.746 19.9444 138.961 20.8609 138.961 21.8929C138.961 22.2009 138.954 22.4936 138.938 22.7708C138.923 23.048 138.9 23.2945 138.869 23.5101H130.713C130.837 24.4035 131.145 25.0735 131.637 25.5201C132.146 25.9514 132.8 26.1671 133.601 26.1671C134.279 26.1671 134.826 26.0361 135.242 25.7743C135.658 25.5124 135.981 25.1505 136.212 24.6884L138.73 25.6588C138.361 26.5675 137.714 27.276 136.79 27.7843C135.865 28.2772 134.81 28.5236 133.624 28.5236ZM133.44 18.8431C131.946 18.8431 131.044 19.6672 130.736 21.3153H135.935C135.842 20.5143 135.581 19.9059 135.149 19.4901C134.733 19.0588 134.163 18.8431 133.44 18.8431Z" fill="#101828"/>
<path d="M146.265 28.5236C145.094 28.5236 144.023 28.3157 143.053 27.8998C142.098 27.484 141.32 26.8987 140.72 26.144L142.545 24.2956C142.914 24.8501 143.407 25.3045 144.023 25.6588C144.64 26.013 145.371 26.1902 146.218 26.1902C146.819 26.1902 147.297 26.1054 147.651 25.936C148.02 25.7512 148.205 25.4662 148.205 25.0812C148.205 24.8347 148.121 24.6268 147.951 24.4574C147.782 24.2725 147.443 24.1262 146.935 24.0184L144.901 23.6025C143.561 23.3253 142.606 22.9094 142.037 22.3549C141.482 21.785 141.205 21.0534 141.205 20.1601C141.205 19.5286 141.39 18.9356 141.759 18.3811C142.144 17.8266 142.714 17.3799 143.469 17.0411C144.224 16.6868 145.163 16.5097 146.288 16.5097C148.629 16.5097 150.308 17.2259 151.324 18.6583L149.43 20.5066C149.091 19.9675 148.644 19.5594 148.09 19.2821C147.551 18.9895 146.981 18.8431 146.38 18.8431C145.025 18.8431 144.347 19.2205 144.347 19.9752C144.347 20.2217 144.455 20.4373 144.67 20.6221C144.886 20.7916 145.279 20.9379 145.849 21.0611L148.205 21.5463C149.345 21.7773 150.161 22.1701 150.654 22.7246C151.147 23.2637 151.394 23.9183 151.394 24.6884C151.394 25.7974 150.947 26.7138 150.054 27.4378C149.176 28.1617 147.913 28.5236 146.265 28.5236Z" fill="#101828"/>
</svg>
