<svg width="156" height="40" viewBox="0 0 156 40" fill="none" xmlns="http://www.w3.org/2000/svg">
<path fill-rule="evenodd" clip-rule="evenodd" d="M18.7353 30.3746C24.4422 30.3746 29.0686 25.7482 29.0686 20.0412C29.0686 14.3343 24.4422 9.70791 18.7353 9.70791C13.0283 9.70791 8.40196 14.3343 8.40196 20.0412C8.40196 25.7482 13.0283 30.3746 18.7353 30.3746ZM18.7353 38.2765C28.8064 38.2765 36.9706 30.1123 36.9706 20.0412C36.9706 9.97017 28.8064 1.80595 18.7353 1.80595C8.66422 1.80595 0.5 9.97017 0.5 20.0412C0.5 30.1123 8.66422 38.2765 18.7353 38.2765Z" fill="#6938EF"/>
<path d="M18.9439 20.4405C20.8429 18.5415 23.9218 18.5415 25.8208 20.4405L35.2766 29.8963C37.1757 31.7953 37.1757 34.8743 35.2767 36.7733V36.7733C33.3776 38.6723 30.2987 38.6723 28.3997 36.7733L18.9439 27.3175C17.0449 25.4185 17.0449 22.3395 18.9439 20.4405V20.4405Z" fill="#F670C7"/>
<path d="M21.599 29.9726L27.6045 35.9781C30.485 34.3716 32.8848 32.0068 34.534 29.1537L28.5777 23.1974C27.5315 26.4627 24.9054 29.0209 21.599 29.9726Z" fill="#6519BA"/>
<path d="M66.4123 30.0707C65.8862 30.7205 65.2441 31.2156 64.486 31.556C63.7433 31.8964 62.9233 32.0666 62.0259 32.0666C60.819 32.0666 59.7282 31.8036 58.7535 31.2775C57.7787 30.7669 56.6647 29.8541 55.4114 28.5389C53.9416 28.3532 52.6264 27.8813 51.466 27.1232C50.321 26.365 49.4236 25.3903 48.7738 24.1989C48.1394 22.9921 47.8222 21.6614 47.8222 20.207C47.8222 18.6134 48.2013 17.1822 48.9595 15.9134C49.7331 14.6292 50.7929 13.6235 52.139 12.8963C53.5006 12.1691 55.0246 11.8055 56.7111 11.8055C58.3976 11.8055 59.9139 12.1691 61.26 12.8963C62.6061 13.6235 63.6659 14.6292 64.4396 15.9134C65.2132 17.1822 65.6 18.6134 65.6 20.207C65.6 22.0947 65.0662 23.7502 63.9986 25.1737C62.9465 26.5971 61.5462 27.5874 59.7979 28.1444C60.1847 28.5466 60.556 28.8329 60.9119 29.0031C61.2832 29.1887 61.6777 29.2816 62.0955 29.2816C63.1012 29.2816 63.9831 28.8793 64.7413 28.0747L66.4123 30.0707ZM51.6284 20.207C51.6284 21.2127 51.8451 22.1101 52.2783 22.8992C52.727 23.6883 53.3381 24.3072 54.1118 24.7559C54.8854 25.1891 55.7518 25.4057 56.7111 25.4057C57.6704 25.4057 58.5369 25.1891 59.3105 24.7559C60.0841 24.3072 60.6875 23.6883 61.1207 22.8992C61.5694 22.1101 61.7938 21.2127 61.7938 20.207C61.7938 19.2013 61.5694 18.3039 61.1207 17.5148C60.6875 16.7257 60.0841 16.1146 59.3105 15.6814C58.5369 15.2327 57.6704 15.0083 56.7111 15.0083C55.7518 15.0083 54.8854 15.2327 54.1118 15.6814C53.3381 16.1146 52.727 16.7257 52.2783 17.5148C51.8451 18.3039 51.6284 19.2013 51.6284 20.207Z" fill="#101828"/>
<path d="M80.7494 15.8438V28.33H77.3145V26.8447C76.8349 27.3862 76.2624 27.804 75.5971 28.0979C74.9318 28.3764 74.2123 28.5157 73.4387 28.5157C71.7986 28.5157 70.4989 28.0438 69.5396 27.1C68.5804 26.1562 68.1007 24.7559 68.1007 22.8992V15.8438H71.7213V22.3654C71.7213 24.3768 72.5645 25.3825 74.251 25.3825C75.1174 25.3825 75.8137 25.104 76.3398 24.547C76.8658 23.9746 77.1288 23.1313 77.1288 22.0173V15.8438H80.7494Z" fill="#101828"/>
<path d="M90.045 28.5157C88.7298 28.5157 87.5462 28.2449 86.494 27.7034C85.4574 27.1464 84.6451 26.3805 84.0571 25.4057C83.4692 24.431 83.1752 23.3247 83.1752 22.0869C83.1752 20.8491 83.4692 19.7429 84.0571 18.7681C84.6451 17.7933 85.4574 17.0352 86.494 16.4937C87.5462 15.9367 88.7298 15.6581 90.045 15.6581C91.3601 15.6581 92.536 15.9367 93.5727 16.4937C94.6093 17.0352 95.4216 17.7933 96.0096 18.7681C96.5975 19.7429 96.8915 20.8491 96.8915 22.0869C96.8915 23.3247 96.5975 24.431 96.0096 25.4057C95.4216 26.3805 94.6093 27.1464 93.5727 27.7034C92.536 28.2449 91.3601 28.5157 90.045 28.5157ZM90.045 25.545C90.9733 25.545 91.7314 25.2356 92.3194 24.6167C92.9228 23.9823 93.2245 23.139 93.2245 22.0869C93.2245 21.0348 92.9228 20.1993 92.3194 19.5804C91.7314 18.946 90.9733 18.6288 90.045 18.6288C89.1166 18.6288 88.3507 18.946 87.7473 19.5804C87.1439 20.1993 86.8422 21.0348 86.8422 22.0869C86.8422 23.139 87.1439 23.9823 87.7473 24.6167C88.3507 25.2356 89.1166 25.545 90.045 25.545Z" fill="#101828"/>
<path d="M107.365 27.7266C107.009 27.9896 106.568 28.1908 106.042 28.33C105.531 28.4538 104.99 28.5157 104.417 28.5157C102.932 28.5157 101.779 28.1366 100.959 27.3785C100.155 26.6203 99.7525 25.5063 99.7525 24.0364V18.9073H97.8262V16.1223H99.7525V13.082H103.373V16.1223H106.483V18.9073H103.373V23.99C103.373 24.5161 103.505 24.9261 103.768 25.2201C104.046 25.4986 104.433 25.6378 104.928 25.6378C105.5 25.6378 105.988 25.4831 106.39 25.1737L107.365 27.7266Z" fill="#101828"/>
<path d="M109.397 15.8438H113.018V28.33H109.397V15.8438ZM111.208 14.1032C110.542 14.1032 110.001 13.9098 109.583 13.523C109.165 13.1361 108.956 12.6565 108.956 12.084C108.956 11.5115 109.165 11.0319 109.583 10.6451C110.001 10.2583 110.542 10.0649 111.208 10.0649C111.873 10.0649 112.414 10.2505 112.832 10.6219C113.25 10.9932 113.459 11.4574 113.459 12.0144C113.459 12.6178 113.25 13.1207 112.832 13.523C112.414 13.9098 111.873 14.1032 111.208 14.1032Z" fill="#101828"/>
<path d="M128.609 22.1333C128.609 22.1798 128.586 22.5047 128.539 23.1081H119.093C119.264 23.8817 119.666 24.4929 120.3 24.9416C120.935 25.3903 121.724 25.6146 122.667 25.6146C123.317 25.6146 123.89 25.5218 124.385 25.3361C124.896 25.135 125.367 24.8255 125.801 24.4078L127.727 26.4966C126.551 27.8426 124.834 28.5157 122.575 28.5157C121.167 28.5157 119.921 28.2449 118.838 27.7034C117.755 27.1464 116.919 26.3805 116.332 25.4057C115.744 24.431 115.45 23.3247 115.45 22.0869C115.45 20.8646 115.736 19.7661 116.308 18.7913C116.896 17.8011 117.693 17.0352 118.699 16.4937C119.72 15.9367 120.857 15.6581 122.11 15.6581C123.333 15.6581 124.439 15.9212 125.429 16.4472C126.42 16.9733 127.193 17.7314 127.75 18.7217C128.323 19.6964 128.609 20.8337 128.609 22.1333ZM122.134 18.3968C121.314 18.3968 120.625 18.6288 120.068 19.093C119.511 19.5572 119.171 20.1916 119.047 20.9961H125.197C125.073 20.207 124.733 19.5804 124.176 19.1162C123.619 18.6366 122.938 18.3968 122.134 18.3968Z" fill="#101828"/>
<path d="M138.609 15.6581C140.156 15.6581 141.401 16.1223 142.345 17.0507C143.304 17.979 143.784 19.356 143.784 21.1818V28.33H140.163V21.7388C140.163 20.7486 139.947 20.0136 139.514 19.534C139.08 19.0389 138.454 18.7913 137.634 18.7913C136.721 18.7913 135.994 19.0775 135.452 19.65C134.911 20.207 134.64 21.0425 134.64 22.1565V28.33H131.019V15.8438H134.477V17.306C134.957 16.7799 135.553 16.3776 136.264 16.0991C136.976 15.8051 137.758 15.6581 138.609 15.6581Z" fill="#101828"/>
<path d="M155.119 27.7266C154.763 27.9896 154.322 28.1908 153.796 28.33C153.286 28.4538 152.744 28.5157 152.172 28.5157C150.686 28.5157 149.534 28.1366 148.714 27.3785C147.909 26.6203 147.507 25.5063 147.507 24.0364V18.9073H145.581V16.1223H147.507V13.082H151.127V16.1223H154.237V18.9073H151.127V23.99C151.127 24.5161 151.259 24.9261 151.522 25.2201C151.8 25.4986 152.187 25.6378 152.682 25.6378C153.255 25.6378 153.742 25.4831 154.144 25.1737L155.119 27.7266Z" fill="#101828"/>
</svg>
