<svg width="115" height="38" viewBox="0 0 115 38" fill="none" xmlns="http://www.w3.org/2000/svg">
<path d="M10.8674 17.7281C11.5094 15.3323 13.9721 12.8697 16.3678 12.2276L31.3042 8.22483C33.7 7.58279 35.1216 9.00447 34.4796 11.4002L30.4768 26.3366C29.8348 28.7324 27.3721 31.195 24.9764 31.837L10.04 35.8398C7.64424 36.4819 6.22256 35.0602 6.8646 32.6644L10.8674 17.7281Z" fill="#9E77ED"/>
<path d="M4.87953 11.74C5.52158 9.34427 7.98421 6.88164 10.38 6.23959L25.3163 2.23681C27.7121 1.59477 29.1338 3.01645 28.4918 5.41222L24.489 20.3486C23.8469 22.7443 21.3843 25.207 18.9885 25.849L4.05216 29.8518C1.65639 30.4938 0.234706 29.0722 0.876749 26.6764L4.87953 11.74Z" fill="#6941C6"/>
<path d="M48.3582 24.8381H53.496V26.8495H45.8658V11.6547H48.3582V24.8381Z" fill="#101828"/>
<path d="M54.7495 20.7716C54.7495 19.5618 54.9973 18.4905 55.4929 17.5577C56.003 16.6249 56.688 15.9034 57.548 15.3933C58.4225 14.8685 59.3845 14.6062 60.4339 14.6062C61.3813 14.6062 62.2048 14.7957 62.9044 15.1746C63.6186 15.539 64.187 15.9981 64.6097 16.552V14.803H67.124V26.8495H64.6097V25.0567C64.187 25.6251 63.6113 26.0988 62.8826 26.4778C62.1538 26.8568 61.323 27.0462 60.3902 27.0462C59.3553 27.0462 58.4079 26.7839 57.548 26.2592C56.688 25.7199 56.003 24.9765 55.4929 24.0291C54.9973 23.0672 54.7495 21.9813 54.7495 20.7716ZM64.6097 20.8153C64.6097 19.9845 64.4348 19.263 64.085 18.6508C63.7498 18.0387 63.3052 17.5723 62.7514 17.2516C62.1975 16.931 61.5999 16.7706 60.9586 16.7706C60.3173 16.7706 59.7197 16.931 59.1658 17.2516C58.612 17.5577 58.1601 18.0168 57.8103 18.629C57.4751 19.2266 57.3075 19.9408 57.3075 20.7716C57.3075 21.6023 57.4751 22.3311 57.8103 22.9579C58.1601 23.5846 58.612 24.0656 59.1658 24.4008C59.7343 24.7215 60.3319 24.8818 60.9586 24.8818C61.5999 24.8818 62.1975 24.7215 62.7514 24.4008C63.3052 24.0802 63.7498 23.6137 64.085 23.0016C64.4348 22.3748 64.6097 21.6461 64.6097 20.8153Z" fill="#101828"/>
<path d="M81.2417 14.803L73.852 32.512H71.2721L73.7208 26.6527L68.9765 14.803H71.7531L75.1419 23.9854L78.6618 14.803H81.2417Z" fill="#101828"/>
<path d="M94.1634 20.5311C94.1634 20.9829 94.1343 21.391 94.076 21.7554H84.8716C84.9445 22.7174 85.3016 23.4899 85.9429 24.0729C86.5842 24.6559 87.3713 24.9474 88.3041 24.9474C89.6451 24.9474 90.5924 24.3862 91.1463 23.2639H93.8355C93.4711 24.3717 92.8079 25.2826 91.8459 25.9968C90.8985 26.6964 89.7179 27.0462 88.3041 27.0462C87.1527 27.0462 86.1178 26.7912 85.1996 26.281C84.2959 25.7563 83.5817 25.0276 83.057 24.0947C82.5469 23.1473 82.2918 22.0542 82.2918 20.8153C82.2918 19.5764 82.5396 18.4905 83.0351 17.5577C83.5453 16.6103 84.2522 15.8815 85.1558 15.3714C86.0741 14.8613 87.1235 14.6062 88.3041 14.6062C89.441 14.6062 90.454 14.854 91.3431 15.3495C92.2322 15.8451 92.9245 16.5447 93.4201 17.4484C93.9156 18.3375 94.1634 19.365 94.1634 20.5311ZM91.5617 19.744C91.5471 18.8257 91.2192 18.0897 90.5779 17.5358C89.9366 16.982 89.1422 16.705 88.1948 16.705C87.3349 16.705 86.5988 16.982 85.9866 17.5358C85.3745 18.0751 85.0101 18.8112 84.8935 19.744H91.5617Z" fill="#101828"/>
<path d="M99.1085 16.552C99.4729 15.9398 99.9539 15.4661 100.552 15.1309C101.164 14.7811 101.885 14.6062 102.716 14.6062V17.186H102.082C101.105 17.186 100.362 17.4338 99.8519 17.9294C99.3563 18.4249 99.1085 19.2849 99.1085 20.5092V26.8495H96.6162V14.803H99.1085V16.552Z" fill="#101828"/>
<path d="M109.38 27.0462C108.432 27.0462 107.58 26.8786 106.822 26.5434C106.078 26.1936 105.488 25.7272 105.051 25.1442C104.613 24.5466 104.38 23.8834 104.351 23.1546H106.931C106.975 23.6648 107.215 24.0947 107.652 24.4445C108.104 24.7798 108.665 24.9474 109.336 24.9474C110.035 24.9474 110.575 24.8162 110.954 24.5539C111.347 24.2769 111.544 23.9271 111.544 23.5044C111.544 23.0526 111.325 22.7174 110.888 22.4987C110.465 22.2801 109.788 22.0396 108.855 21.7773C107.951 21.5295 107.215 21.289 106.647 21.0558C106.078 20.8226 105.583 20.4655 105.16 19.9845C104.752 19.5035 104.548 18.8695 104.548 18.0824C104.548 17.4411 104.737 16.8581 105.116 16.3334C105.495 15.7941 106.035 15.3714 106.734 15.0653C107.448 14.7592 108.265 14.6062 109.183 14.6062C110.553 14.6062 111.653 14.956 112.484 15.6556C113.329 16.3407 113.781 17.2808 113.84 18.4759H111.347C111.303 17.9367 111.085 17.5067 110.691 17.186C110.298 16.8654 109.766 16.705 109.095 16.705C108.439 16.705 107.937 16.8289 107.587 17.0767C107.237 17.3245 107.062 17.6524 107.062 18.0605C107.062 18.3812 107.179 18.6508 107.412 18.8695C107.645 19.0881 107.929 19.263 108.265 19.3942C108.6 19.5108 109.095 19.6638 109.751 19.8533C110.626 20.0865 111.34 20.327 111.894 20.5748C112.462 20.808 112.951 21.1578 113.359 21.6242C113.767 22.0906 113.978 22.7101 113.993 23.4826C113.993 24.1676 113.803 24.7798 113.424 25.3191C113.045 25.8583 112.506 26.281 111.806 26.5871C111.121 26.8932 110.312 27.0462 109.38 27.0462Z" fill="#101828"/>
</svg>
