<svg width="138" height="40" viewBox="0 0 138 40" fill="none" xmlns="http://www.w3.org/2000/svg">
<rect x="0.5" y="16.1501" width="7.78223" height="7.78224" fill="#039855"/>
<rect x="23.8467" y="23.9324" width="7.78224" height="7.78224" transform="rotate(180 23.8467 23.9324)" fill="#027A48"/>
<path d="M8.28223 16.1501L16.0645 8.36786V16.1501L8.28223 23.9323V16.1501Z" fill="#A6F4C5"/>
<path d="M16.0645 23.9324L8.28223 31.7146L8.28223 23.9324L16.0645 16.1501L16.0645 23.9324Z" fill="#6CE9A6"/>
<path d="M0.5 16.1501L16.0645 0.585617V8.36786L8.28223 16.1501H0.5Z" fill="#32D583"/>
<path d="M23.8467 23.9324L8.28225 39.4969L8.28225 31.7147L16.0645 23.9324L23.8467 23.9324Z" fill="#12B76A"/>
<path d="M40.7959 28.3747C39.5702 28.3747 38.3823 28.2007 37.2322 27.8527C36.0973 27.5046 35.197 27.0431 34.5311 26.4681L35.5526 24.1756C36.2032 24.6901 36.9977 25.1138 37.9359 25.4467C38.8892 25.7644 39.8425 25.9233 40.7959 25.9233C41.9762 25.9233 42.8538 25.7342 43.4288 25.3559C44.019 24.9776 44.3141 24.4782 44.3141 23.8578C44.3141 23.4038 44.1476 23.0331 43.8147 22.7456C43.4969 22.4429 43.0884 22.2084 42.589 22.0419C42.0897 21.8755 41.4087 21.6863 40.5462 21.4745C39.3356 21.187 38.352 20.8995 37.5954 20.6119C36.8539 20.3244 36.2108 19.878 35.6661 19.2728C35.1364 18.6523 34.8716 17.8201 34.8716 16.7759C34.8716 15.8983 35.1062 15.1038 35.5753 14.3926C36.0595 13.6663 36.7783 13.0913 37.7316 12.6676C38.7001 12.2439 39.8804 12.032 41.2725 12.032C42.241 12.032 43.1943 12.1531 44.1325 12.3952C45.0707 12.6373 45.8803 12.9853 46.5612 13.4393L45.6306 15.7318C44.9345 15.3233 44.2082 15.0131 43.4515 14.8012C42.6949 14.5893 41.961 14.4834 41.2498 14.4834C40.0846 14.4834 39.2145 14.6801 38.6395 15.0736C38.0796 15.467 37.7997 15.9891 37.7997 16.6398C37.7997 17.0937 37.9586 17.4645 38.2764 17.752C38.6093 18.0395 39.0254 18.2665 39.5248 18.4329C40.0241 18.5994 40.7051 18.7885 41.5676 19.0004C42.7479 19.2728 43.7164 19.5603 44.473 19.8629C45.2296 20.1504 45.8727 20.5968 46.4023 21.2021C46.9471 21.8074 47.2195 22.6245 47.2195 23.6535C47.2195 24.5312 46.9773 25.3256 46.4931 26.0368C46.024 26.748 45.3052 27.3155 44.3368 27.7392C43.3683 28.1629 42.188 28.3747 40.7959 28.3747Z" fill="#101828"/>
<path d="M49.873 16.0269H52.7103V28.1478H49.873V16.0269ZM51.303 14.0295C50.7885 14.0295 50.3572 13.8706 50.0092 13.5528C49.6612 13.2199 49.4871 12.8113 49.4871 12.3271C49.4871 11.8429 49.6612 11.4419 50.0092 11.1241C50.3572 10.7912 50.7885 10.6247 51.303 10.6247C51.8175 10.6247 52.2488 10.7836 52.5968 11.1014C52.9448 11.404 53.1189 11.7899 53.1189 12.259C53.1189 12.7584 52.9448 13.1821 52.5968 13.5301C52.2639 13.863 51.8326 14.0295 51.303 14.0295Z" fill="#101828"/>
<path d="M60.1794 28.3066C59.1958 28.3066 58.235 28.178 57.2968 27.9208C56.3586 27.6635 55.6095 27.3382 55.0496 26.9448L56.1391 24.7884C56.6839 25.1516 57.3346 25.4467 58.0912 25.6737C58.8629 25.8855 59.6195 25.9914 60.361 25.9914C62.0558 25.9914 62.9032 25.545 62.9032 24.6522C62.9032 24.2285 62.6838 23.9335 62.245 23.767C61.8213 23.6005 61.1328 23.4417 60.1794 23.2903C59.1807 23.139 58.3636 22.965 57.728 22.7683C57.1076 22.5716 56.5628 22.2311 56.0938 21.7469C55.6398 21.2475 55.4128 20.559 55.4128 19.6813C55.4128 18.5313 55.8895 17.6158 56.8428 16.9348C57.8113 16.2388 59.1126 15.8907 60.7469 15.8907C61.5792 15.8907 62.4114 15.9891 63.2437 16.1858C64.076 16.3674 64.7569 16.6171 65.2865 16.9348L64.197 19.0912C63.168 18.4859 62.0104 18.1832 60.7242 18.1832C59.8919 18.1832 59.2564 18.3119 58.8175 18.5691C58.3938 18.8112 58.182 19.1366 58.182 19.5451C58.182 19.9991 58.409 20.3244 58.8629 20.5212C59.332 20.7027 60.0508 20.8768 61.0193 21.0432C61.9877 21.1945 62.7822 21.3686 63.4026 21.5653C64.023 21.762 64.5526 22.0949 64.9915 22.564C65.4454 23.0331 65.6724 23.6989 65.6724 24.5614C65.6724 25.6964 65.1806 26.6043 64.197 27.2852C63.2134 27.9662 61.8742 28.3066 60.1794 28.3066Z" fill="#101828"/>
<path d="M79.2433 16.0269L73.5687 29.1238C73.0391 30.4403 72.396 31.3633 71.6394 31.893C70.8828 32.4377 69.9673 32.7101 68.8929 32.7101C68.2876 32.7101 67.6899 32.6117 67.0997 32.415C66.5096 32.2183 66.0253 31.9459 65.647 31.5979L66.782 29.5097C67.0543 29.7669 67.3721 29.9712 67.7353 30.1225C68.1136 30.2738 68.4919 30.3495 68.8702 30.3495C69.3696 30.3495 69.7781 30.2209 70.0959 29.9636C70.4288 29.7064 70.7315 29.2751 71.0038 28.6698L71.2081 28.1932L65.9194 16.0269H68.8702L72.6835 24.9927L76.5195 16.0269H79.2433Z" fill="#101828"/>
<path d="M87.7353 15.8907C88.9156 15.8907 89.9673 16.148 90.8903 16.6625C91.8285 17.1769 92.5624 17.9033 93.092 18.8415C93.6217 19.7797 93.8865 20.8616 93.8865 22.0873C93.8865 23.313 93.6217 24.4026 93.092 25.3559C92.5624 26.2941 91.8285 27.0204 90.8903 27.5349C89.9673 28.0494 88.9156 28.3066 87.7353 28.3066C86.101 28.3066 84.8072 27.7619 83.8539 26.6724V32.5512H81.0166V16.0269H83.7177V17.6158C84.1868 17.0408 84.7618 16.6095 85.4427 16.322C86.1388 16.0345 86.903 15.8907 87.7353 15.8907ZM87.4175 25.8779C88.4616 25.8779 89.3166 25.5299 89.9824 24.8338C90.6633 24.1377 91.0038 23.2222 91.0038 22.0873C91.0038 20.9524 90.6633 20.0369 89.9824 19.3408C89.3166 18.6448 88.4616 18.2967 87.4175 18.2967C86.7365 18.2967 86.1237 18.4556 85.5789 18.7734C85.0342 19.076 84.6029 19.5149 84.2851 20.0899C83.9674 20.6649 83.8085 21.3307 83.8085 22.0873C83.8085 22.8439 83.9674 23.5098 84.2851 24.0848C84.6029 24.6598 85.0342 25.1062 85.5789 25.424C86.1237 25.7266 86.7365 25.8779 87.4175 25.8779Z" fill="#101828"/>
<path d="M103.455 15.8907C104.983 15.8907 106.209 16.3371 107.132 17.2299C108.055 18.1227 108.517 19.4468 108.517 21.2021V28.1478H105.679V21.5653C105.679 20.506 105.43 19.7116 104.93 19.182C104.431 18.6372 103.72 18.3648 102.797 18.3648C101.752 18.3648 100.928 18.6826 100.322 19.3181C99.7172 19.9386 99.4146 20.8389 99.4146 22.0192V28.1478H96.5773V11.3057H99.4146V17.4342C99.8837 16.9348 100.459 16.5565 101.14 16.2993C101.836 16.0269 102.607 15.8907 103.455 15.8907Z" fill="#101828"/>
<path d="M123.851 16.0269V28.1478H121.15V26.6043C120.696 27.149 120.128 27.5727 119.447 27.8754C118.766 28.1629 118.032 28.3066 117.246 28.3066C115.626 28.3066 114.348 27.8603 113.41 26.9675C112.487 26.0595 112.025 24.7203 112.025 22.9499V16.0269H114.862V22.564C114.862 23.6535 115.104 24.4706 115.589 25.0154C116.088 25.545 116.792 25.8098 117.7 25.8098C118.713 25.8098 119.515 25.4996 120.106 24.8792C120.711 24.2437 121.014 23.3357 121.014 22.1554V16.0269H123.851Z" fill="#101828"/>
<path d="M131.311 28.3066C130.327 28.3066 129.366 28.178 128.428 27.9208C127.49 27.6635 126.741 27.3382 126.181 26.9448L127.271 24.7884C127.815 25.1516 128.466 25.4467 129.223 25.6737C129.994 25.8855 130.751 25.9914 131.492 25.9914C133.187 25.9914 134.035 25.545 134.035 24.6522C134.035 24.2285 133.815 23.9335 133.376 23.767C132.953 23.6005 132.264 23.4417 131.311 23.2903C130.312 23.139 129.495 22.965 128.859 22.7683C128.239 22.5716 127.694 22.2311 127.225 21.7469C126.771 21.2475 126.544 20.559 126.544 19.6813C126.544 18.5313 127.021 17.6158 127.974 16.9348C128.943 16.2388 130.244 15.8907 131.878 15.8907C132.711 15.8907 133.543 15.9891 134.375 16.1858C135.207 16.3674 135.888 16.6171 136.418 16.9348L135.328 19.0912C134.299 18.4859 133.142 18.1832 131.856 18.1832C131.023 18.1832 130.388 18.3119 129.949 18.5691C129.525 18.8112 129.313 19.1366 129.313 19.5451C129.313 19.9991 129.54 20.3244 129.994 20.5212C130.463 20.7027 131.182 20.8768 132.151 21.0432C133.119 21.1945 133.914 21.3686 134.534 21.5653C135.154 21.762 135.684 22.0949 136.123 22.564C136.577 23.0331 136.804 23.6989 136.804 24.5614C136.804 25.6964 136.312 26.6043 135.328 27.2852C134.345 27.9662 133.006 28.3066 131.311 28.3066Z" fill="#101828"/>
</svg>
