<svg width="163" height="41" viewBox="0 0 163 41" fill="none" xmlns="http://www.w3.org/2000/svg">
<path d="M28.7921 20.0413C25.824 23.3575 21.5107 25.4445 16.7099 25.4445C11.909 25.4445 7.59568 23.3575 4.62756 20.0413C7.59569 16.725 11.909 14.638 16.7099 14.638C21.5107 14.638 25.824 16.725 28.7921 20.0413Z" fill="white"/>
<path fill-rule="evenodd" clip-rule="evenodd" d="M0.5 30.8478C0.5 21.8954 7.75738 14.638 16.7098 14.638C11.909 14.638 7.59569 16.725 4.62756 20.0413C7.59569 23.3575 11.909 25.4445 16.7098 25.4445C21.5106 25.4445 25.824 23.3575 28.7921 20.0413C31.3589 22.9091 32.9196 26.6962 32.9196 30.8478V36.9715C32.9196 37.7673 32.2745 38.4124 31.4788 38.4124H1.94087C1.1451 38.4124 0.5 37.7673 0.5 36.9715V30.8478ZM28.7921 20.0413C28.7921 20.0413 28.7921 20.0413 28.7921 20.0413Z" fill="#7CD4FD"/>
<path fill-rule="evenodd" clip-rule="evenodd" d="M10.6297 24.2656C8.31517 23.3285 6.26633 21.8722 4.62756 20.0412C7.59569 16.725 11.909 14.638 16.7099 14.638C21.5106 14.638 25.824 16.725 28.7921 20.0412C28.7921 20.0412 28.7921 20.0412 28.7921 20.0412C31.3589 17.1734 32.9196 13.3863 32.9196 9.23468V3.11098C32.9196 2.31521 32.2745 1.67011 31.4788 1.67011L1.94088 1.6701C1.14511 1.6701 0.500004 2.31521 0.500004 3.11098L0.500004 9.23468C0.500003 16.0369 4.68991 21.8606 10.6297 24.2656Z" fill="#0BA5EC"/>
<path d="M58.2388 12.0715V28.3918H54.9654V21.4475H47.9744V28.3918H44.701V12.0715H47.9744V18.782H54.9654V12.0715H58.2388Z" fill="#101828"/>
<path d="M67.2125 28.6022C65.9655 28.6022 64.8432 28.3294 63.8456 27.7839C62.848 27.2227 62.0608 26.4355 61.4841 25.4223C60.9229 24.4091 60.6423 23.2401 60.6423 21.9151C60.6423 20.5902 60.9307 19.4211 61.5074 18.4079C62.0998 17.3947 62.9025 16.6153 63.9157 16.0697C64.9289 15.5086 66.059 15.228 67.306 15.228C68.553 15.228 69.6831 15.5086 70.6963 16.0697C71.7095 16.6153 72.5045 17.3947 73.0812 18.4079C73.6736 19.4211 73.9697 20.5902 73.9697 21.9151C73.9697 23.2401 73.6658 24.4091 73.0579 25.4223C72.4655 26.4355 71.655 27.2227 70.6262 27.7839C69.613 28.3294 68.4751 28.6022 67.2125 28.6022ZM67.2125 25.7497C67.8048 25.7497 68.3582 25.6094 68.8726 25.3288C69.4026 25.0326 69.8234 24.5962 70.1352 24.0194C70.4469 23.4427 70.6028 22.7413 70.6028 21.9151C70.6028 20.6837 70.2755 19.7406 69.6208 19.086C68.9817 18.4157 68.1945 18.0805 67.2593 18.0805C66.324 18.0805 65.5368 18.4157 64.8978 19.086C64.2742 19.7406 63.9625 20.6837 63.9625 21.9151C63.9625 23.1465 64.2665 24.0974 64.8744 24.7676C65.4979 25.4223 66.2773 25.7497 67.2125 25.7497Z" fill="#101828"/>
<path d="M88.5994 15.4384V28.3918H85.3026V26.7551C84.8817 27.3162 84.3284 27.7605 83.6425 28.0878C82.9723 28.3996 82.2396 28.5554 81.4447 28.5554C80.4315 28.5554 79.5352 28.345 78.7558 27.9241C77.9764 27.4877 77.3607 26.8564 76.9087 26.0302C76.4722 25.1885 76.254 24.1909 76.254 23.0374V15.4384H79.5274V22.5698C79.5274 23.5986 79.7846 24.3935 80.299 24.9547C80.8134 25.5003 81.5148 25.773 82.4033 25.773C83.3074 25.773 84.0166 25.5003 84.531 24.9547C85.0454 24.3935 85.3026 23.5986 85.3026 22.5698V15.4384H88.5994Z" fill="#101828"/>
<path d="M95.1025 17.4492C95.5234 16.7634 96.069 16.2256 96.7392 15.8359C97.4251 15.4462 98.2045 15.2514 99.0774 15.2514V18.6885H98.2123C97.1835 18.6885 96.4041 18.9301 95.8741 19.4133C95.3597 19.8965 95.1025 20.7382 95.1025 21.9385V28.3918H91.8291V15.4384H95.1025V17.4492Z" fill="#101828"/>
<path d="M106.356 15.228C107.322 15.228 108.172 15.4229 108.905 15.8125C109.637 16.1867 110.214 16.6777 110.635 17.2856V15.4384H113.932V28.4853C113.932 29.6855 113.69 30.7533 113.207 31.6886C112.723 32.6394 111.999 33.3876 111.032 33.9332C110.066 34.4943 108.897 34.7749 107.525 34.7749C105.686 34.7749 104.174 34.3462 102.989 33.4889C101.82 32.6316 101.157 31.4625 101.002 29.9817H104.252C104.423 30.574 104.789 31.0417 105.351 31.3846C105.927 31.7431 106.621 31.9224 107.431 31.9224C108.382 31.9224 109.154 31.634 109.746 31.0573C110.339 30.4961 110.635 29.6388 110.635 28.4853V26.4745C110.214 27.0824 109.629 27.589 108.881 27.9943C108.149 28.3996 107.307 28.6022 106.356 28.6022C105.265 28.6022 104.267 28.3216 103.363 27.7605C102.459 27.1993 101.742 26.4121 101.212 25.3989C100.698 24.3702 100.44 23.1933 100.44 21.8683C100.44 20.559 100.698 19.3977 101.212 18.3845C101.742 17.3713 102.451 16.5919 103.34 16.0464C104.244 15.5008 105.249 15.228 106.356 15.228ZM110.635 21.9151C110.635 21.1201 110.479 20.4421 110.167 19.8809C109.855 19.3042 109.434 18.8677 108.905 18.5716C108.375 18.2598 107.806 18.1039 107.198 18.1039C106.59 18.1039 106.029 18.252 105.514 18.5482C105 18.8443 104.579 19.2808 104.252 19.8575C103.94 20.4187 103.784 21.089 103.784 21.8683C103.784 22.6477 103.94 23.3336 104.252 23.9259C104.579 24.5027 105 24.9469 105.514 25.2587C106.044 25.5704 106.605 25.7263 107.198 25.7263C107.806 25.7263 108.375 25.5782 108.905 25.282C109.434 24.9703 109.855 24.5338 110.167 23.9727C110.479 23.3959 110.635 22.7101 110.635 21.9151Z" fill="#101828"/>
<path d="M120.402 11.0895V28.3918H117.129V11.0895H120.402Z" fill="#101828"/>
<path d="M122.794 21.8683C122.794 20.559 123.052 19.3977 123.566 18.3845C124.096 17.3713 124.805 16.5919 125.694 16.0464C126.598 15.5008 127.603 15.228 128.71 15.228C129.676 15.228 130.518 15.4229 131.235 15.8125C131.968 16.2022 132.552 16.6932 132.989 17.2856V15.4384H136.285V28.3918H132.989V26.4979C132.568 27.1058 131.983 27.6124 131.235 28.0177C130.502 28.4074 129.653 28.6022 128.686 28.6022C127.595 28.6022 126.598 28.3216 125.694 27.7605C124.805 27.1993 124.096 26.4121 123.566 25.3989C123.052 24.3702 122.794 23.1933 122.794 21.8683ZM132.989 21.9151C132.989 21.1201 132.833 20.4421 132.521 19.8809C132.209 19.3042 131.788 18.8677 131.258 18.5716C130.728 18.2598 130.159 18.1039 129.552 18.1039C128.944 18.1039 128.383 18.252 127.868 18.5482C127.354 18.8443 126.933 19.2808 126.606 19.8575C126.294 20.4187 126.138 21.089 126.138 21.8683C126.138 22.6477 126.294 23.3336 126.606 23.9259C126.933 24.5027 127.354 24.9469 127.868 25.2587C128.398 25.5704 128.959 25.7263 129.552 25.7263C130.159 25.7263 130.728 25.5782 131.258 25.282C131.788 24.9703 132.209 24.5338 132.521 23.9727C132.833 23.3959 132.989 22.7101 132.989 21.9151Z" fill="#101828"/>
<path d="M144.439 28.6022C143.379 28.6022 142.429 28.4152 141.587 28.041C140.745 27.6514 140.075 27.1292 139.576 26.4745C139.093 25.8198 138.828 25.095 138.781 24.3H142.078C142.14 24.7988 142.382 25.2119 142.803 25.5392C143.239 25.8666 143.777 26.0302 144.416 26.0302C145.039 26.0302 145.523 25.9055 145.866 25.6561C146.224 25.4067 146.403 25.0872 146.403 24.6975C146.403 24.2766 146.185 23.9649 145.749 23.7622C145.328 23.544 144.65 23.3102 143.715 23.0608C142.748 22.827 141.953 22.5854 141.33 22.336C140.722 22.0866 140.192 21.7047 139.74 21.1903C139.303 20.6759 139.085 19.9822 139.085 19.1093C139.085 18.3923 139.288 17.7376 139.693 17.1453C140.114 16.553 140.706 16.0853 141.47 15.7424C142.249 15.3995 143.161 15.228 144.206 15.228C145.749 15.228 146.98 15.6177 147.9 16.3971C148.819 17.1609 149.326 18.1975 149.42 19.5068H146.286C146.24 18.9924 146.021 18.5871 145.632 18.291C145.258 17.9792 144.751 17.8234 144.112 17.8234C143.52 17.8234 143.06 17.9325 142.732 18.1507C142.421 18.3689 142.265 18.6729 142.265 19.0626C142.265 19.499 142.483 19.8342 142.92 20.068C143.356 20.2862 144.034 20.5122 144.954 20.746C145.889 20.9798 146.661 21.2215 147.268 21.4709C147.876 21.7203 148.399 22.11 148.835 22.6399C149.287 23.1543 149.521 23.8402 149.536 24.6975C149.536 25.4457 149.326 26.116 148.905 26.7083C148.5 27.3006 147.908 27.7683 147.128 28.1112C146.364 28.4385 145.468 28.6022 144.439 28.6022Z" fill="#101828"/>
<path d="M157.18 28.6022C156.12 28.6022 155.17 28.4152 154.328 28.041C153.486 27.6514 152.816 27.1292 152.317 26.4745C151.834 25.8198 151.569 25.095 151.522 24.3H154.819C154.881 24.7988 155.123 25.2119 155.544 25.5392C155.98 25.8666 156.518 26.0302 157.157 26.0302C157.78 26.0302 158.264 25.9055 158.607 25.6561C158.965 25.4067 159.144 25.0872 159.144 24.6975C159.144 24.2766 158.926 23.9649 158.49 23.7622C158.069 23.544 157.391 23.3102 156.456 23.0608C155.489 22.827 154.694 22.5854 154.071 22.336C153.463 22.0866 152.933 21.7047 152.481 21.1903C152.044 20.6759 151.826 19.9822 151.826 19.1093C151.826 18.3923 152.029 17.7376 152.434 17.1453C152.855 16.553 153.447 16.0853 154.211 15.7424C154.99 15.3995 155.902 15.228 156.947 15.228C158.49 15.228 159.721 15.6177 160.641 16.3971C161.56 17.1609 162.067 18.1975 162.161 19.5068H159.027C158.981 18.9924 158.763 18.5871 158.373 18.291C157.999 17.9792 157.492 17.8234 156.853 17.8234C156.261 17.8234 155.801 17.9325 155.474 18.1507C155.162 18.3689 155.006 18.6729 155.006 19.0626C155.006 19.499 155.224 19.8342 155.661 20.068C156.097 20.2862 156.775 20.5122 157.695 20.746C158.63 20.9798 159.402 21.2215 160.01 21.4709C160.617 21.7203 161.14 22.11 161.576 22.6399C162.028 23.1543 162.262 23.8402 162.278 24.6975C162.278 25.4457 162.067 26.116 161.646 26.7083C161.241 27.3006 160.649 27.7683 159.869 28.1112C159.105 28.4385 158.209 28.6022 157.18 28.6022Z" fill="#101828"/>
</svg>
