<svg width="237" height="72" viewBox="0 0 237 72" fill="none" xmlns="http://www.w3.org/2000/svg">
<path opacity="0.8" d="M32.5875 3.7561C14.5899 3.7561 0 18.3255 0 36.2978C0 54.27 14.5899 68.8394 32.5875 68.8394C48.7346 68.8394 62.1387 57.112 64.7244 41.7214H64.4906C62.0788 51.0784 53.5729 57.9922 43.45 57.9922C31.4517 57.9922 21.725 48.2793 21.725 36.2978C21.725 24.3162 31.4517 14.6033 43.45 14.6033C53.5729 14.6033 62.0788 21.5172 64.4906 30.8742H64.7244C62.1387 15.4835 48.7346 3.7561 32.5875 3.7561Z" fill="white"/>
<path d="M0 36.2978C0 18.3255 14.5899 3.7561 32.5875 3.7561C48.7346 3.7561 62.1387 15.4835 64.7244 30.8742H42.7656C40.3539 21.5172 31.848 14.6033 21.725 14.6033C9.72661 14.6033 0 24.3163 0 36.2978Z" fill="white"/>
<path d="M0 36.2977C0 54.27 14.5899 68.8394 32.5875 68.8394C48.7346 68.8394 62.1387 57.112 64.7244 41.7213H42.7656C40.3539 51.0783 31.848 57.9921 21.725 57.9921C9.72661 57.9921 0 48.2792 0 36.2977Z" fill="white"/>
<path d="M111.744 31.1312C110.816 24.4392 105.661 20.5564 98.9744 20.5564C91.0948 20.5564 85.1592 26.2924 85.1592 36.0288C85.1592 45.7506 91.0211 51.5012 98.9744 51.5012C106.147 51.5012 110.904 46.8683 111.744 41.1177L106.235 41.0882C105.543 44.6181 102.657 46.6036 99.0481 46.6036C94.1583 46.6036 90.6529 42.9414 90.6529 36.0288C90.6529 29.2339 94.1288 25.454 99.0628 25.454C102.73 25.454 105.602 27.5278 106.235 31.1312H111.744Z" fill="white"/>
<path d="M123.022 51.5454C126.572 51.5454 128.693 49.8834 129.665 47.9861H129.841V51.0894H134.967V35.97C134.967 29.9987 130.092 28.2044 125.776 28.2044C121.019 28.2044 117.366 30.3223 116.188 34.4404L121.166 35.1464C121.697 33.6021 123.199 32.2784 125.806 32.2784C128.28 32.2784 129.635 33.5432 129.635 35.7641V35.8523C129.635 37.3819 128.03 37.4555 124.038 37.882C119.649 38.3526 115.452 39.6616 115.452 44.7504C115.452 49.1921 118.707 51.5454 123.022 51.5454ZM124.407 47.6331C122.183 47.6331 120.592 46.6183 120.592 44.6622C120.592 42.6178 122.374 41.7648 124.76 41.4265C126.159 41.2353 128.958 40.8823 129.65 40.3234V42.9855C129.65 45.5005 127.617 47.6331 124.407 47.6331Z" fill="white"/>
<path d="M151.625 28.4985H147.162V23.0861H141.83V28.4985H138.619V32.6166H141.83V45.177C141.801 49.4275 144.894 51.5159 148.9 51.3983C150.417 51.3542 151.463 51.06 152.037 50.8688L151.138 46.7066C150.844 46.7801 150.24 46.9125 149.577 46.9125C148.237 46.9125 147.162 46.4418 147.162 44.2945V32.6166H151.625V28.4985Z" fill="white"/>
<path d="M162.593 51.5454C166.143 51.5454 168.264 49.8834 169.236 47.9861H169.413V51.0894H174.538V35.97C174.538 29.9987 169.663 28.2044 165.348 28.2044C160.59 28.2044 156.938 30.3223 155.759 34.4404L160.738 35.1464C161.268 33.6021 162.77 32.2784 165.377 32.2784C167.851 32.2784 169.206 33.5432 169.206 35.7641V35.8523C169.206 37.3819 167.601 37.4555 163.61 37.882C159.221 38.3526 155.023 39.6616 155.023 44.7504C155.023 49.1921 158.278 51.5454 162.593 51.5454ZM163.978 47.6331C161.754 47.6331 160.163 46.6183 160.163 44.6622C160.163 42.6178 161.945 41.7648 164.331 41.4265C165.731 41.2353 168.529 40.8823 169.221 40.3234V42.9855C169.221 45.5005 167.189 47.6331 163.978 47.6331Z" fill="white"/>
<path d="M185.231 20.9682H179.899V51.0894H185.231V20.9682Z" fill="white"/>
<path d="M200.581 51.5307C207.209 51.5307 211.422 46.8683 211.422 39.8822C211.422 32.8814 207.209 28.2044 200.581 28.2044C193.954 28.2044 189.741 32.8814 189.741 39.8822C189.741 46.8683 193.954 51.5307 200.581 51.5307ZM200.611 47.2654C196.944 47.2654 195.147 44.0003 195.147 39.8675C195.147 35.7347 196.944 32.4254 200.611 32.4254C204.219 32.4254 206.016 35.7347 206.016 39.8675C206.016 44.0003 204.219 47.2654 200.611 47.2654Z" fill="white"/>
<path d="M225.785 60.0317C231.898 60.0317 236.404 57.2372 236.404 51.4571V28.4985H231.146V32.2343H230.852C230.042 30.6017 228.348 28.2044 224.357 28.2044C219.128 28.2044 215.019 32.2931 215.019 39.7204C215.019 47.089 219.128 50.7659 224.342 50.7659C228.216 50.7659 230.027 48.6921 230.852 47.0301H231.117V51.31C231.117 54.634 228.908 56.0018 225.874 56.0018C222.663 56.0018 221.249 54.4869 220.601 53.1632L215.8 54.3251C216.772 57.4872 220.027 60.0317 225.785 60.0317ZM225.83 46.5889C222.309 46.5889 220.454 43.8533 220.454 39.691C220.454 35.5876 222.28 32.5725 225.83 32.5725C229.261 32.5725 231.146 35.4111 231.146 39.691C231.146 44.0004 229.232 46.5889 225.83 46.5889Z" fill="white"/>
</svg>
