<svg width="33" height="33" viewBox="0 0 33 33" fill="none" xmlns="http://www.w3.org/2000/svg">
<path d="M12.5434 14.1506H13.8767C14.2304 14.1506 14.5695 14.01 14.8195 13.7595C15.0696 13.5091 15.2101 13.1695 15.2101 12.8153C15.2101 12.4612 15.0696 12.1216 14.8195 11.8711C14.5695 11.6207 14.2304 11.48 13.8767 11.48H12.5434C12.1898 11.48 11.8506 11.6207 11.6006 11.8711C11.3505 12.1216 11.2101 12.4612 11.2101 12.8153C11.2101 13.1695 11.3505 13.5091 11.6006 13.7595C11.8506 14.01 12.1898 14.1506 12.5434 14.1506V14.1506ZM12.5434 16.8212C12.1898 16.8212 11.8506 16.9619 11.6006 17.2123C11.3505 17.4627 11.2101 17.8024 11.2101 18.1565C11.2101 18.5107 11.3505 18.8503 11.6006 19.1007C11.8506 19.3511 12.1898 19.4918 12.5434 19.4918H20.5434C20.897 19.4918 21.2362 19.3511 21.4862 19.1007C21.7363 18.8503 21.8767 18.5107 21.8767 18.1565C21.8767 17.8024 21.7363 17.4627 21.4862 17.2123C21.2362 16.9619 20.897 16.8212 20.5434 16.8212H12.5434ZM27.2101 12.7352C27.1962 12.6126 27.1694 12.4917 27.1301 12.3747V12.2545C27.066 12.1172 26.9804 11.991 26.8767 11.8806V11.8806L18.8767 3.86885C18.7665 3.76499 18.6405 3.67935 18.5034 3.61514C18.4636 3.60948 18.4232 3.60948 18.3834 3.61514C18.248 3.53735 18.0984 3.48742 17.9434 3.46826H9.87674C8.81587 3.46826 7.79846 3.89031 7.04831 4.64156C6.29817 5.39281 5.87674 6.41172 5.87674 7.47415V26.1683C5.87674 27.2307 6.29817 28.2497 7.04831 29.0009C7.79846 29.7522 8.81587 30.1742 9.87674 30.1742H23.2101C24.2709 30.1742 25.2884 29.7522 26.0385 29.0009C26.7886 28.2497 27.2101 27.2307 27.2101 26.1683V12.8153C27.2101 12.8153 27.2101 12.8153 27.2101 12.7352ZM19.2101 8.02162L22.6634 11.48H20.5434C20.1898 11.48 19.8506 11.3394 19.6006 11.0889C19.3505 10.8385 19.2101 10.4989 19.2101 10.1447V8.02162ZM24.5434 26.1683C24.5434 26.5225 24.4029 26.8621 24.1529 27.1125C23.9028 27.3629 23.5637 27.5036 23.2101 27.5036H9.87674C9.52312 27.5036 9.18398 27.3629 8.93393 27.1125C8.68388 26.8621 8.54341 26.5225 8.54341 26.1683V7.47415C8.54341 7.12001 8.68388 6.78037 8.93393 6.52996C9.18398 6.27954 9.52312 6.13886 9.87674 6.13886H16.5434V10.1447C16.5434 11.2072 16.9648 12.2261 17.715 12.9773C18.4651 13.7286 19.4825 14.1506 20.5434 14.1506H24.5434V26.1683ZM20.5434 22.1624H12.5434C12.1898 22.1624 11.8506 22.3031 11.6006 22.5535C11.3505 22.8039 11.2101 23.1436 11.2101 23.4977C11.2101 23.8519 11.3505 24.1915 11.6006 24.4419C11.8506 24.6923 12.1898 24.833 12.5434 24.833H20.5434C20.897 24.833 21.2362 24.6923 21.4862 24.4419C21.7363 24.1915 21.8767 23.8519 21.8767 23.4977C21.8767 23.1436 21.7363 22.8039 21.4862 22.5535C21.2362 22.3031 20.897 22.1624 20.5434 22.1624Z" fill="#7291FF"/>
</svg>
