<svg width="36" height="37" viewBox="0 0 36 37" fill="none" xmlns="http://www.w3.org/2000/svg">
<path d="M0 18.2161C0 8.27494 8.05887 0.216064 18 0.216064V0.216064C27.9411 0.216064 36 8.27494 36 18.2161V18.2161C36 28.1572 27.9411 36.2161 18 36.2161V36.2161C8.05887 36.2161 0 28.1572 0 18.2161V18.2161Z" fill="white"/>
<path d="M9 11.6359C9 11.0587 9.20271 10.5825 9.60811 10.2073C10.0135 9.83212 10.5405 9.64453 11.1892 9.64453C11.8263 9.64453 12.3417 9.82922 12.7355 10.1986C13.1409 10.5796 13.3436 11.076 13.3436 11.6878C13.3436 12.2419 13.1467 12.7037 12.7529 13.0731C12.3475 13.4541 11.8147 13.6445 11.1544 13.6445H11.1371C10.5 13.6445 9.98456 13.4541 9.59073 13.0731C9.19691 12.6921 9 12.2131 9 11.6359ZM9.22587 26.7874V15.2203H13.083V26.7874H9.22587ZM15.2201 26.7874H19.0772V20.3285C19.0772 19.9245 19.1236 19.6128 19.2162 19.3934C19.3784 19.0009 19.6245 18.669 19.9546 18.3978C20.2847 18.1265 20.6988 17.9908 21.1969 17.9908C22.4942 17.9908 23.1429 18.8624 23.1429 20.6056V26.7874H27V20.1553C27 18.4468 26.5946 17.151 25.7838 16.2679C24.973 15.3848 23.9015 14.9432 22.5695 14.9432C21.0753 14.9432 19.9112 15.5839 19.0772 16.8653V16.8999H19.0598L19.0772 16.8653V15.2203H15.2201C15.2432 15.5897 15.2548 16.7383 15.2548 18.6662C15.2548 20.594 15.2432 23.3011 15.2201 26.7874Z" fill="#3A3D43"/>
</svg>
