<svg width="36" height="37" viewBox="0 0 36 37" fill="none" xmlns="http://www.w3.org/2000/svg">
<path d="M0 18.2161C0 8.27494 8.05887 0.216064 18 0.216064V0.216064C27.9411 0.216064 36 8.27494 36 18.2161V18.2161C36 28.1572 27.9411 36.2161 18 36.2161V36.2161C8.05887 36.2161 0 28.1572 0 18.2161V18.2161Z" fill="white"/>
<path d="M18.4386 25.196L14.3764 25.1201C13.0612 25.0936 11.7427 25.1464 10.4532 24.8723C8.49165 24.4628 8.35268 22.4549 8.20727 20.7707C8.00691 18.4028 8.08448 15.992 8.46258 13.644C8.67604 12.3264 9.51607 11.5403 10.8152 11.4547C15.2005 11.1442 19.615 11.181 23.9906 11.3259C24.4528 11.3392 24.9181 11.4117 25.3737 11.4943C27.6231 11.8973 27.6779 14.1727 27.8237 16.0881C27.9691 18.0233 27.9077 19.9685 27.6298 21.8905C27.4068 23.4819 26.9802 24.8165 25.1798 24.9453C22.9241 25.1138 20.7201 25.2494 18.458 25.2062C18.4581 25.196 18.4451 25.196 18.4386 25.196ZM16.0505 21.167C17.7504 20.1696 19.4178 19.1888 21.108 18.1981C19.4049 17.2007 17.7406 16.2199 16.0505 15.2292V21.167Z" fill="#3A3D43"/>
</svg>
