<svg width="19" height="19" viewBox="0 0 19 19" fill="none" xmlns="http://www.w3.org/2000/svg">
<g clip-path="url(#clip0_2902_7162)">
<path d="M13.517 7.04358H5.92582C4.87768 7.04358 4.02801 7.89326 4.02801 8.94139V14.6348C4.02801 15.6829 4.87768 16.5326 5.92582 16.5326H13.517C14.5652 16.5326 15.4149 15.6829 15.4149 14.6348V8.94139C15.4149 7.89326 14.5652 7.04358 13.517 7.04358Z" stroke="#1E285F" stroke-width="1.8219" stroke-linecap="round" stroke-linejoin="round"/>
<path d="M9.72144 1.3501C8.71478 1.3501 7.74935 1.74999 7.03753 2.46181C6.32572 3.17362 5.92582 4.13905 5.92582 5.14571V7.04352H13.5171V5.14571C13.5171 4.13905 13.1172 3.17362 12.4053 2.46181C11.6935 1.74999 10.7281 1.3501 9.72144 1.3501V1.3501Z" stroke="#1E285F" stroke-width="1.8219" stroke-linecap="round" stroke-linejoin="round"/>
</g>
<defs>
<clipPath id="clip0_2902_7162">
<rect width="18.219" height="18.219" fill="white" transform="translate(0.611961 0.105591)"/>
</clipPath>
</defs>
</svg>
