<svg width="19" height="19" viewBox="0 0 19 19" fill="none" xmlns="http://www.w3.org/2000/svg">
<g clip-path="url(#clip0_2902_7101)">
<path d="M13.6085 7.04358H6.01725C4.96912 7.04358 4.11945 7.89326 4.11945 8.94139V14.6348C4.11945 15.6829 4.96912 16.5326 6.01725 16.5326H13.6085C14.6566 16.5326 15.5063 15.6829 15.5063 14.6348V8.94139C15.5063 7.89326 14.6566 7.04358 13.6085 7.04358Z" stroke="#1E285F" stroke-width="1.8219" stroke-linecap="round" stroke-linejoin="round"/>
<path d="M9.81289 1.3501C8.80623 1.3501 7.8408 1.74999 7.12898 2.46181C6.41717 3.17362 6.01727 4.13905 6.01727 5.14571V7.04352H13.6085V5.14571C13.6085 4.13905 13.2086 3.17362 12.4968 2.46181C11.785 1.74999 10.8195 1.3501 9.81289 1.3501V1.3501Z" stroke="#1E285F" stroke-width="1.8219" stroke-linecap="round" stroke-linejoin="round"/>
</g>
<defs>
<clipPath id="clip0_2902_7101">
<rect width="18.219" height="18.219" fill="white" transform="translate(0.7034 0.105591)"/>
</clipPath>
</defs>
</svg>
