<svg width="19" height="19" viewBox="0 0 19 19" fill="none" xmlns="http://www.w3.org/2000/svg">
<g clip-path="url(#clip0_2902_7132)">
<path d="M13.6062 7.36084H6.01493C4.9668 7.36084 4.11713 8.21052 4.11713 9.25865V14.9521C4.11713 16.0002 4.9668 16.8499 6.01493 16.8499H13.6062C14.6543 16.8499 15.504 16.0002 15.504 14.9521V9.25865C15.504 8.21052 14.6543 7.36084 13.6062 7.36084Z" stroke="#1E285F" stroke-width="1.8219" stroke-linecap="round" stroke-linejoin="round"/>
<path d="M9.81054 1.66736C8.80388 1.66736 7.83845 2.06725 7.12663 2.77907C6.41482 3.49088 6.01492 4.45631 6.01492 5.46297V7.36078H13.6062V5.46297C13.6062 4.45631 13.2063 3.49088 12.4944 2.77907C11.7826 2.06725 10.8172 1.66736 9.81054 1.66736V1.66736Z" stroke="#1E285F" stroke-width="1.8219" stroke-linecap="round" stroke-linejoin="round"/>
</g>
<defs>
<clipPath id="clip0_2902_7132">
<rect width="18.219" height="18.219" fill="white" transform="translate(0.70108 0.422729)"/>
</clipPath>
</defs>
</svg>
