<svg width="19" height="20" viewBox="0 0 19 20" fill="none" xmlns="http://www.w3.org/2000/svg">
<path d="M13.517 7.91101H5.92582C4.87768 7.91101 4.02801 8.76069 4.02801 9.80882V15.5022C4.02801 16.5504 4.87768 17.4 5.92582 17.4H13.517C14.5652 17.4 15.4149 16.5504 15.4149 15.5022V9.80882C15.4149 8.76069 14.5652 7.91101 13.517 7.91101Z" stroke="#1E285F" stroke-width="1.8219" stroke-linecap="round" stroke-linejoin="round"/>
<path d="M9.72144 2.21759C8.71478 2.21759 7.74935 2.61748 7.03753 3.3293C6.32572 4.04112 5.92582 5.00655 5.92582 6.01321V7.91101H13.5171V6.01321C13.5171 5.00655 13.1172 4.04112 12.4053 3.3293C11.6935 2.61748 10.7281 2.21759 9.72144 2.21759V2.21759Z" stroke="#1E285F" stroke-width="1.8219" stroke-linecap="round" stroke-linejoin="round"/>
</svg>
