<svg width="20" height="21" viewBox="0 0 20 21" fill="none" xmlns="http://www.w3.org/2000/svg">
<g clip-path="url(#clip0_2902_7010)">
<path d="M14.1667 7.83228H5.83333C4.68274 7.83228 3.75 8.76502 3.75 9.91561V16.1656C3.75 17.3162 4.68274 18.2489 5.83333 18.2489H14.1667C15.3173 18.2489 16.25 17.3162 16.25 16.1656V9.91561C16.25 8.76502 15.3173 7.83228 14.1667 7.83228Z" stroke="#1E285F" stroke-width="1.4" stroke-linecap="round" stroke-linejoin="round"/>
<path d="M10 1.58228C8.89494 1.58228 7.83513 2.02126 7.05373 2.80266C6.27233 3.58407 5.83334 4.64387 5.83334 5.74894V7.83228H14.1667V5.74894C14.1667 4.64387 13.7277 3.58407 12.9463 2.80266C12.1649 2.02126 11.1051 1.58228 10 1.58228V1.58228Z" stroke="#1E285F" stroke-width="1.4" stroke-linecap="round" stroke-linejoin="round"/>
</g>
<defs>
<clipPath id="clip0_2902_7010">
<rect width="20" height="20" fill="white" transform="translate(0 0.216064)"/>
</clipPath>
</defs>
</svg>
