<svg width="19" height="20" viewBox="0 0 19 20" fill="none" xmlns="http://www.w3.org/2000/svg">
<path d="M13.6085 7.91101H6.01725C4.96912 7.91101 4.11945 8.76069 4.11945 9.80882V15.5022C4.11945 16.5504 4.96912 17.4 6.01725 17.4H13.6085C14.6566 17.4 15.5063 16.5504 15.5063 15.5022V9.80882C15.5063 8.76069 14.6566 7.91101 13.6085 7.91101Z" stroke="#1E285F" stroke-width="1.8219" stroke-linecap="round" stroke-linejoin="round"/>
<path d="M9.81289 2.21759C8.80623 2.21759 7.8408 2.61748 7.12898 3.3293C6.41717 4.04112 6.01727 5.00655 6.01727 6.01321V7.91101H13.6085V6.01321C13.6085 5.00655 13.2086 4.04112 12.4968 3.3293C11.785 2.61748 10.8195 2.21759 9.81289 2.21759V2.21759Z" stroke="#1E285F" stroke-width="1.8219" stroke-linecap="round" stroke-linejoin="round"/>
</svg>
