<svg width="20" height="19" viewBox="0 0 20 19" fill="none" xmlns="http://www.w3.org/2000/svg">
<g clip-path="url(#clip0_2902_7230)">
<path d="M13.6999 7.04358H6.10862C5.06049 7.04358 4.21082 7.89326 4.21082 8.94139V14.6348C4.21082 15.6829 5.06049 16.5326 6.10862 16.5326H13.6999C14.748 16.5326 15.5977 15.6829 15.5977 14.6348V8.94139C15.5977 7.89326 14.748 7.04358 13.6999 7.04358Z" stroke="#1E285F" stroke-width="1.8219" stroke-linecap="round" stroke-linejoin="round"/>
<path d="M9.90426 1.3501C8.8976 1.3501 7.93217 1.74999 7.22035 2.46181C6.50854 3.17362 6.10864 4.13905 6.10864 5.14571V7.04352H13.6999V5.14571C13.6999 4.13905 13.3 3.17362 12.5882 2.46181C11.8763 1.74999 10.9109 1.3501 9.90426 1.3501V1.3501Z" stroke="#1E285F" stroke-width="1.8219" stroke-linecap="round" stroke-linejoin="round"/>
</g>
<defs>
<clipPath id="clip0_2902_7230">
<rect width="18.219" height="18.219" fill="white" transform="translate(0.7948 0.105591)"/>
</clipPath>
</defs>
</svg>
