<svg width="21" height="21" viewBox="0 0 21 21" fill="none" xmlns="http://www.w3.org/2000/svg">
<g clip-path="url(#clip0_2902_6955)">
<path d="M14.6667 7.83228H6.33333C5.18274 7.83228 4.25 8.76502 4.25 9.91561V16.1656C4.25 17.3162 5.18274 18.2489 6.33333 18.2489H14.6667C15.8173 18.2489 16.75 17.3162 16.75 16.1656V9.91561C16.75 8.76502 15.8173 7.83228 14.6667 7.83228Z" stroke="#1E285F" stroke-width="1.4" stroke-linecap="round" stroke-linejoin="round"/>
<path d="M10.5 1.58228C9.39493 1.58228 8.33513 2.02126 7.55372 2.80266C6.77232 3.58407 6.33334 4.64387 6.33334 5.74894V7.83228H14.6667V5.74894C14.6667 4.64387 14.2277 3.58407 13.4463 2.80266C12.6649 2.02126 11.6051 1.58228 10.5 1.58228V1.58228Z" stroke="#1E285F" stroke-width="1.4" stroke-linecap="round" stroke-linejoin="round"/>
</g>
<defs>
<clipPath id="clip0_2902_6955">
<rect width="20" height="20" fill="white" transform="translate(0.5 0.216064)"/>
</clipPath>
</defs>
</svg>
