<svg width="19" height="19" viewBox="0 0 19 19" fill="none" xmlns="http://www.w3.org/2000/svg">
<g clip-path="url(#clip0_2902_7217)">
<path d="M13.5193 7.36084H5.92808C4.87995 7.36084 4.03027 8.21052 4.03027 9.25865V14.9521C4.03027 16.0002 4.87995 16.8499 5.92808 16.8499H13.5193C14.5674 16.8499 15.4171 16.0002 15.4171 14.9521V9.25865C15.4171 8.21052 14.5674 7.36084 13.5193 7.36084Z" stroke="#1E285F" stroke-width="1.8219" stroke-linecap="round" stroke-linejoin="round"/>
<path d="M9.72369 1.66736C8.71703 1.66736 7.7516 2.06725 7.03979 2.77907C6.32797 3.49088 5.92808 4.45631 5.92808 5.46297V7.36078H13.5193V5.46297C13.5193 4.45631 13.1194 3.49088 12.4076 2.77907C11.6958 2.06725 10.7304 1.66736 9.72369 1.66736V1.66736Z" stroke="#1E285F" stroke-width="1.8219" stroke-linecap="round" stroke-linejoin="round"/>
</g>
<defs>
<clipPath id="clip0_2902_7217">
<rect width="18.219" height="18.219" fill="white" transform="translate(0.61422 0.422729)"/>
</clipPath>
</defs>
</svg>
