<svg width="19" height="19" viewBox="0 0 19 19" fill="none" xmlns="http://www.w3.org/2000/svg">
<g clip-path="url(#clip0_2902_7192)">
<path d="M13.693 7.36084H6.10179C5.05366 7.36084 4.20398 8.21052 4.20398 9.25865V14.9521C4.20398 16.0002 5.05366 16.8499 6.10179 16.8499H13.693C14.7411 16.8499 15.5908 16.0002 15.5908 14.9521V9.25865C15.5908 8.21052 14.7411 7.36084 13.693 7.36084Z" stroke="#1E285F" stroke-width="1.8219" stroke-linecap="round" stroke-linejoin="round"/>
<path d="M9.89742 1.66736C8.89076 1.66736 7.92533 2.06725 7.21352 2.77907C6.5017 3.49088 6.10181 4.45631 6.10181 5.46297V7.36078H13.693V5.46297C13.693 4.45631 13.2931 3.49088 12.5813 2.77907C11.8695 2.06725 10.9041 1.66736 9.89742 1.66736V1.66736Z" stroke="#1E285F" stroke-width="1.8219" stroke-linecap="round" stroke-linejoin="round"/>
</g>
<defs>
<clipPath id="clip0_2902_7192">
<rect width="18.219" height="18.219" fill="white" transform="translate(0.787903 0.422729)"/>
</clipPath>
</defs>
</svg>
