<svg width="20" height="20" viewBox="0 0 20 20" fill="none" xmlns="http://www.w3.org/2000/svg">
<path d="M13.6999 7.91101H6.10862C5.06049 7.91101 4.21082 8.76069 4.21082 9.80882V15.5022C4.21082 16.5504 5.06049 17.4 6.10862 17.4H13.6999C14.748 17.4 15.5977 16.5504 15.5977 15.5022V9.80882C15.5977 8.76069 14.748 7.91101 13.6999 7.91101Z" stroke="#1E285F" stroke-width="1.8219" stroke-linecap="round" stroke-linejoin="round"/>
<path d="M9.90426 2.21759C8.8976 2.21759 7.93217 2.61748 7.22035 3.3293C6.50854 4.04112 6.10864 5.00655 6.10864 6.01321V7.91101H13.6999V6.01321C13.6999 5.00655 13.3 4.04112 12.5882 3.3293C11.8763 2.61748 10.9109 2.21759 9.90426 2.21759V2.21759Z" stroke="#1E285F" stroke-width="1.8219" stroke-linecap="round" stroke-linejoin="round"/>
</svg>
