<svg width="33" height="33" viewBox="0 0 33 33" fill="none" xmlns="http://www.w3.org/2000/svg">
<path d="M29.5769 21.6015L23.5502 15.5793C23.6764 14.9643 23.7389 14.3378 23.7369 13.7099C23.7364 11.9882 23.3026 10.2945 22.4755 8.78518C21.6484 7.27588 20.4547 5.99974 19.0048 5.07474C17.5548 4.14973 15.8955 3.6057 14.18 3.49294C12.4646 3.38018 10.7484 3.70232 9.19023 4.4296C8.99281 4.51991 8.82039 4.65713 8.68795 4.82933C8.5555 5.00153 8.46703 5.2035 8.43023 5.41772C8.39356 5.62921 8.40835 5.84644 8.47334 6.05099C8.53833 6.25554 8.6516 6.44139 8.80356 6.59278L14.6036 12.388L12.2036 14.7915L6.41689 8.98296C6.26445 8.83314 6.0783 8.7222 5.87411 8.65945C5.66992 8.59671 5.45367 8.58402 5.24356 8.62243C5.031 8.65794 4.83021 8.74452 4.65837 8.87475C4.48653 9.00498 4.34877 9.17498 4.25689 9.3702C3.52826 10.9358 3.20687 12.6606 3.32262 14.3841C3.43836 16.1075 3.98749 17.7736 4.91891 19.2275C5.85033 20.6813 7.13379 21.8756 8.64988 22.6992C10.166 23.5229 11.8655 23.9491 13.5902 23.9383C14.2172 23.9403 14.8427 23.8777 15.4569 23.7513L21.4702 29.7869C21.5942 29.912 21.7416 30.0114 21.9041 30.0792C22.0666 30.147 22.2409 30.1819 22.4169 30.1819C22.5929 30.1819 22.7672 30.147 22.9297 30.0792C23.0921 30.0114 23.2396 29.912 23.3636 29.7869C23.4885 29.6628 23.5877 29.5151 23.6554 29.3524C23.7231 29.1896 23.758 29.0151 23.758 28.8388C23.758 28.6626 23.7231 28.488 23.6554 28.3253C23.5877 28.1626 23.4885 28.0149 23.3636 27.8908L16.8302 21.3478C16.667 21.1854 16.4645 21.0681 16.2425 21.0072C16.0206 20.9464 15.7867 20.9441 15.5636 21.0006C14.9198 21.1733 14.2567 21.263 13.5902 21.2677C12.593 21.2765 11.6038 21.0876 10.6797 20.7119C9.75569 20.3362 8.91499 19.7811 8.20608 19.0786C7.49717 18.3761 6.93406 17.5401 6.54918 16.6187C6.16431 15.6972 5.96528 14.7087 5.96356 13.7099C5.96183 13.2626 5.99751 12.816 6.07023 12.3746L11.2969 17.6223C11.4208 17.7475 11.5683 17.8468 11.7308 17.9146C11.8933 17.9824 12.0675 18.0173 12.2436 18.0173C12.4196 18.0173 12.5939 17.9824 12.7563 17.9146C12.9188 17.8468 13.0663 17.7475 13.1902 17.6223L17.4302 13.336C17.6705 13.087 17.8049 12.7543 17.8049 12.408C17.8049 12.0617 17.6705 11.729 17.4302 11.48L12.2436 6.2456C12.6843 6.17351 13.1303 6.13778 13.5769 6.13878C15.5796 6.14231 17.4991 6.94155 18.914 8.36103C20.3289 9.78051 21.1236 11.7042 21.1236 13.7099C21.1189 14.3773 21.0293 15.0414 20.8569 15.6862C20.8005 15.9096 20.8027 16.1438 20.8635 16.3661C20.9242 16.5884 21.0414 16.7912 21.2036 16.9547L27.7369 23.4976C27.988 23.7491 28.3285 23.8903 28.6836 23.8903C29.0386 23.8903 29.3792 23.7491 29.6302 23.4976C29.8813 23.2462 30.0223 22.9052 30.0223 22.5496C30.0223 22.194 29.8813 21.853 29.6302 21.6015H29.5769Z" fill="#A276FF"/>
</svg>
