<svg width="25" height="25" viewBox="0 0 25 25" fill="none" xmlns="http://www.w3.org/2000/svg">
<path d="M18.0228 11.7025C17.9752 11.5798 17.9039 11.4676 17.8128 11.3725L12.8128 6.37252C12.7196 6.27928 12.6089 6.20532 12.4871 6.15486C12.3653 6.1044 12.2347 6.07843 12.1028 6.07843C11.8365 6.07843 11.5811 6.18422 11.3928 6.37252C11.2996 6.46576 11.2256 6.57645 11.1752 6.69827C11.1247 6.82009 11.0988 6.95066 11.0988 7.08252C11.0988 7.34882 11.2045 7.60422 11.3928 7.79252L14.6928 11.0825H7.10284C6.83763 11.0825 6.58327 11.1879 6.39574 11.3754C6.2082 11.563 6.10284 11.8173 6.10284 12.0825C6.10284 12.3477 6.2082 12.6021 6.39574 12.7896C6.58327 12.9772 6.83763 13.0825 7.10284 13.0825H14.6928L11.3928 16.3725C11.2991 16.4655 11.2247 16.5761 11.174 16.6979C11.1232 16.8198 11.097 16.9505 11.097 17.0825C11.097 17.2145 11.1232 17.3452 11.174 17.4671C11.2247 17.589 11.2991 17.6996 11.3928 17.7925C11.4858 17.8862 11.5964 17.9606 11.7183 18.0114C11.8401 18.0622 11.9708 18.0883 12.1028 18.0883C12.2349 18.0883 12.3656 18.0622 12.4874 18.0114C12.6093 17.9606 12.7199 17.8862 12.8128 17.7925L17.8128 12.7925C17.9039 12.6974 17.9752 12.5853 18.0228 12.4625C18.1229 12.2191 18.1229 11.946 18.0228 11.7025Z" fill="#1D6FA3"/>
</svg>
