<svg width="25" height="25" viewBox="0 0 25 25" fill="none" xmlns="http://www.w3.org/2000/svg">
<path d="M17.9314 11.7025C17.8838 11.5798 17.8124 11.4676 17.7214 11.3725L12.7214 6.37252C12.6282 6.27928 12.5175 6.20532 12.3956 6.15486C12.2738 6.1044 12.1433 6.07843 12.0114 6.07843C11.7451 6.07843 11.4897 6.18422 11.3014 6.37252C11.2082 6.46576 11.1342 6.57645 11.0837 6.69827C11.0333 6.82009 11.0073 6.95066 11.0073 7.08252C11.0073 7.34882 11.1131 7.60422 11.3014 7.79252L14.6014 11.0825H7.0114C6.74618 11.0825 6.49183 11.1879 6.30429 11.3754C6.11676 11.563 6.0114 11.8173 6.0114 12.0825C6.0114 12.3477 6.11676 12.6021 6.30429 12.7896C6.49183 12.9772 6.74618 13.0825 7.0114 13.0825H14.6014L11.3014 16.3725C11.2077 16.4655 11.1333 16.5761 11.0825 16.6979C11.0317 16.8198 11.0056 16.9505 11.0056 17.0825C11.0056 17.2145 11.0317 17.3452 11.0825 17.4671C11.1333 17.589 11.2077 17.6996 11.3014 17.7925C11.3944 17.8862 11.505 17.9606 11.6268 18.0114C11.7487 18.0622 11.8794 18.0883 12.0114 18.0883C12.1434 18.0883 12.2741 18.0622 12.396 18.0114C12.5178 17.9606 12.6284 17.8862 12.7214 17.7925L17.7214 12.7925C17.8124 12.6974 17.8838 12.5853 17.9314 12.4625C18.0314 12.2191 18.0314 11.946 17.9314 11.7025Z" fill="#1D6FA3"/>
</svg>
