<svg width="25" height="25" viewBox="0 0 25 25" fill="none" xmlns="http://www.w3.org/2000/svg">
<path d="M18.0228 11.835C17.9752 11.7123 17.9039 11.6001 17.8128 11.505L12.8128 6.50503C12.7196 6.41179 12.6089 6.33783 12.4871 6.28737C12.3653 6.23691 12.2347 6.21094 12.1028 6.21094C11.8365 6.21094 11.5811 6.31673 11.3928 6.50503C11.2996 6.59827 11.2256 6.70896 11.1752 6.83078C11.1247 6.9526 11.0988 7.08317 11.0988 7.21503C11.0988 7.48133 11.2045 7.73673 11.3928 7.92503L14.6928 11.215H7.10284C6.83763 11.215 6.58327 11.3204 6.39574 11.5079C6.2082 11.6955 6.10284 11.9498 6.10284 12.215C6.10284 12.4802 6.2082 12.7346 6.39574 12.9221C6.58327 13.1097 6.83763 13.215 7.10284 13.215H14.6928L11.3928 16.505C11.2991 16.598 11.2247 16.7086 11.174 16.8305C11.1232 16.9523 11.097 17.083 11.097 17.215C11.097 17.347 11.1232 17.4777 11.174 17.5996C11.2247 17.7215 11.2991 17.8321 11.3928 17.925C11.4858 18.0188 11.5964 18.0932 11.7183 18.1439C11.8401 18.1947 11.9708 18.2208 12.1028 18.2208C12.2349 18.2208 12.3656 18.1947 12.4874 18.1439C12.6093 18.0932 12.7199 18.0188 12.8128 17.925L17.8128 12.925C17.9039 12.8299 17.9752 12.7178 18.0228 12.595C18.1229 12.3516 18.1229 12.0785 18.0228 11.835Z" fill="#1D6FA3"/>
</svg>
