<svg width="25" height="25" viewBox="0 0 25 25" fill="none" xmlns="http://www.w3.org/2000/svg">
<path d="M17.9314 11.835C17.8838 11.7123 17.8124 11.6001 17.7214 11.505L12.7214 6.50503C12.6282 6.41179 12.5175 6.33783 12.3956 6.28737C12.2738 6.23691 12.1433 6.21094 12.0114 6.21094C11.7451 6.21094 11.4897 6.31673 11.3014 6.50503C11.2082 6.59827 11.1342 6.70896 11.0837 6.83078C11.0333 6.9526 11.0073 7.08317 11.0073 7.21503C11.0073 7.48133 11.1131 7.73673 11.3014 7.92503L14.6014 11.215H7.0114C6.74618 11.215 6.49183 11.3204 6.30429 11.5079C6.11676 11.6955 6.0114 11.9498 6.0114 12.215C6.0114 12.4802 6.11676 12.7346 6.30429 12.9221C6.49183 13.1097 6.74618 13.215 7.0114 13.215H14.6014L11.3014 16.505C11.2077 16.598 11.1333 16.7086 11.0825 16.8305C11.0317 16.9523 11.0056 17.083 11.0056 17.215C11.0056 17.347 11.0317 17.4777 11.0825 17.5996C11.1333 17.7215 11.2077 17.8321 11.3014 17.925C11.3944 18.0188 11.505 18.0932 11.6268 18.1439C11.7487 18.1947 11.8794 18.2208 12.0114 18.2208C12.1434 18.2208 12.2741 18.1947 12.396 18.1439C12.5178 18.0932 12.6284 18.0188 12.7214 17.925L17.7214 12.925C17.8124 12.8299 17.8838 12.7178 17.9314 12.595C18.0314 12.3516 18.0314 12.0785 17.9314 11.835Z" fill="#1D6FA3"/>
</svg>
