<svg width="24" height="25" viewBox="0 0 24 25" fill="none" xmlns="http://www.w3.org/2000/svg">
<path d="M17.9291 12.1522C17.8815 12.0294 17.8101 11.9173 17.7191 11.8222L12.7191 6.82217C12.6258 6.72893 12.5152 6.65497 12.3933 6.60451C12.2715 6.55405 12.1409 6.52808 12.0091 6.52808C11.7428 6.52808 11.4874 6.63386 11.2991 6.82217C11.2058 6.91541 11.1319 7.0261 11.0814 7.14792C11.031 7.26974 11.005 7.40031 11.005 7.53217C11.005 7.79847 11.1108 8.05386 11.2991 8.24217L14.5991 11.5322H7.00908C6.74386 11.5322 6.48951 11.6375 6.30197 11.8251C6.11444 12.0126 6.00908 12.267 6.00908 12.5322C6.00908 12.7974 6.11444 13.0517 6.30197 13.2393C6.48951 13.4268 6.74386 13.5322 7.00908 13.5322H14.5991L11.2991 16.8222C11.2054 16.9151 11.131 17.0257 11.0802 17.1476C11.0294 17.2694 11.0033 17.4002 11.0033 17.5322C11.0033 17.6642 11.0294 17.7949 11.0802 17.9167C11.131 18.0386 11.2054 18.1492 11.2991 18.2422C11.392 18.3359 11.5026 18.4103 11.6245 18.4611C11.7464 18.5118 11.8771 18.538 12.0091 18.538C12.1411 18.538 12.2718 18.5118 12.3937 18.4611C12.5155 18.4103 12.6261 18.3359 12.7191 18.2422L17.7191 13.2422C17.8101 13.1471 17.8815 13.0349 17.9291 12.9122C18.0291 12.6687 18.0291 12.3956 17.9291 12.1522Z" fill="#1D6FA3"/>
</svg>
