<svg width="25" height="25" viewBox="0 0 25 25" fill="none" xmlns="http://www.w3.org/2000/svg">
<path d="M18.84 11.835C18.7924 11.7123 18.721 11.6001 18.63 11.505L13.63 6.50503C13.5367 6.41179 13.426 6.33783 13.3042 6.28737C13.1824 6.23691 13.0518 6.21094 12.92 6.21094C12.6537 6.21094 12.3983 6.31673 12.21 6.50503C12.1167 6.59827 12.0428 6.70896 11.9923 6.83078C11.9418 6.9526 11.9159 7.08317 11.9159 7.21503C11.9159 7.48133 12.0217 7.73673 12.21 7.92503L15.51 11.215H7.91997C7.65475 11.215 7.4004 11.3204 7.21286 11.5079C7.02532 11.6955 6.91997 11.9498 6.91997 12.215C6.91997 12.4802 7.02532 12.7346 7.21286 12.9221C7.4004 13.1097 7.65475 13.215 7.91997 13.215H15.51L12.21 16.505C12.1162 16.598 12.0418 16.7086 11.9911 16.8305C11.9403 16.9523 11.9142 17.083 11.9142 17.215C11.9142 17.347 11.9403 17.4777 11.9911 17.5996C12.0418 17.7215 12.1162 17.8321 12.21 17.925C12.3029 18.0188 12.4135 18.0932 12.5354 18.1439C12.6573 18.1947 12.788 18.2208 12.92 18.2208C13.052 18.2208 13.1827 18.1947 13.3045 18.1439C13.4264 18.0932 13.537 18.0188 13.63 17.925L18.63 12.925C18.721 12.8299 18.7924 12.7178 18.84 12.595C18.94 12.3516 18.94 12.0785 18.84 11.835Z" fill="#1D6FA3"/>
</svg>
