<svg width="25" height="25" viewBox="0 0 25 25" fill="none" xmlns="http://www.w3.org/2000/svg">
<path d="M18.8422 12.1522C18.7946 12.0294 18.7233 11.9173 18.6322 11.8222L13.6322 6.82217C13.539 6.72893 13.4283 6.65497 13.3065 6.60451C13.1847 6.55405 13.0541 6.52808 12.9222 6.52808C12.6559 6.52808 12.4005 6.63386 12.2122 6.82217C12.119 6.91541 12.045 7.0261 11.9946 7.14792C11.9441 7.26974 11.9181 7.40031 11.9181 7.53217C11.9181 7.79847 12.0239 8.05386 12.2122 8.24217L15.5122 11.5322H7.92223C7.65701 11.5322 7.40266 11.6375 7.21512 11.8251C7.02758 12.0126 6.92223 12.267 6.92223 12.5322C6.92223 12.7974 7.02758 13.0517 7.21512 13.2393C7.40266 13.4268 7.65701 13.5322 7.92223 13.5322H15.5122L12.2122 16.8222C12.1185 16.9151 12.0441 17.0257 11.9933 17.1476C11.9426 17.2694 11.9164 17.4002 11.9164 17.5322C11.9164 17.6642 11.9426 17.7949 11.9933 17.9167C12.0441 18.0386 12.1185 18.1492 12.2122 18.2422C12.3052 18.3359 12.4158 18.4103 12.5376 18.4611C12.6595 18.5118 12.7902 18.538 12.9222 18.538C13.0542 18.538 13.1849 18.5118 13.3068 18.4611C13.4287 18.4103 13.5393 18.3359 13.6322 18.2422L18.6322 13.2422C18.7233 13.1471 18.7946 13.0349 18.8422 12.9122C18.9422 12.6687 18.9422 12.3956 18.8422 12.1522Z" fill="#1D6FA3"/>
</svg>
