<svg width="25" height="25" viewBox="0 0 25 25" fill="none" xmlns="http://www.w3.org/2000/svg">
<path d="M18.0159 12.1522C17.9684 12.0294 17.897 11.9173 17.8059 11.8222L12.8059 6.82217C12.7127 6.72893 12.602 6.65497 12.4802 6.60451C12.3584 6.55405 12.2278 6.52808 12.0959 6.52808C11.8296 6.52808 11.5743 6.63386 11.3859 6.82217C11.2927 6.91541 11.2187 7.0261 11.1683 7.14792C11.1178 7.26974 11.0919 7.40031 11.0919 7.53217C11.0919 7.79847 11.1976 8.05386 11.3859 8.24217L14.6859 11.5322H7.09595C6.83073 11.5322 6.57638 11.6375 6.38884 11.8251C6.2013 12.0126 6.09595 12.267 6.09595 12.5322C6.09595 12.7974 6.2013 13.0517 6.38884 13.2393C6.57638 13.4268 6.83073 13.5322 7.09595 13.5322H14.6859L11.3859 16.8222C11.2922 16.9151 11.2178 17.0257 11.1671 17.1476C11.1163 17.2694 11.0901 17.4002 11.0901 17.5322C11.0901 17.6642 11.1163 17.7949 11.1671 17.9167C11.2178 18.0386 11.2922 18.1492 11.3859 18.2422C11.4789 18.3359 11.5895 18.4103 11.7114 18.4611C11.8332 18.5118 11.9639 18.538 12.0959 18.538C12.228 18.538 12.3587 18.5118 12.4805 18.4611C12.6024 18.4103 12.713 18.3359 12.8059 18.2422L17.8059 13.2422C17.897 13.1471 17.9684 13.0349 18.0159 12.9122C18.116 12.6687 18.116 12.3956 18.0159 12.1522Z" fill="#1D6FA3"/>
</svg>
