<svg width="25" height="25" viewBox="0 0 25 25" fill="none" xmlns="http://www.w3.org/2000/svg">
<path d="M18.84 11.7025C18.7924 11.5798 18.721 11.4676 18.63 11.3725L13.63 6.37252C13.5367 6.27928 13.426 6.20532 13.3042 6.15486C13.1824 6.1044 13.0518 6.07843 12.92 6.07843C12.6537 6.07843 12.3983 6.18422 12.21 6.37252C12.1167 6.46576 12.0428 6.57645 11.9923 6.69827C11.9418 6.82009 11.9159 6.95066 11.9159 7.08252C11.9159 7.34882 12.0217 7.60422 12.21 7.79252L15.51 11.0825H7.91997C7.65475 11.0825 7.4004 11.1879 7.21286 11.3754C7.02532 11.563 6.91997 11.8173 6.91997 12.0825C6.91997 12.3477 7.02532 12.6021 7.21286 12.7896C7.4004 12.9772 7.65475 13.0825 7.91997 13.0825H15.51L12.21 16.3725C12.1162 16.4655 12.0418 16.5761 11.9911 16.6979C11.9403 16.8198 11.9142 16.9505 11.9142 17.0825C11.9142 17.2145 11.9403 17.3452 11.9911 17.4671C12.0418 17.589 12.1162 17.6996 12.21 17.7925C12.3029 17.8862 12.4135 17.9606 12.5354 18.0114C12.6573 18.0622 12.788 18.0883 12.92 18.0883C13.052 18.0883 13.1827 18.0622 13.3045 18.0114C13.4264 17.9606 13.537 17.8862 13.63 17.7925L18.63 12.7925C18.721 12.6974 18.7924 12.5853 18.84 12.4625C18.94 12.2191 18.94 11.946 18.84 11.7025Z" fill="#1D6FA3"/>
</svg>
