<svg width="24" height="25" viewBox="0 0 24 25" fill="none" xmlns="http://www.w3.org/2000/svg">
<path d="M17.92 12.3402C17.8724 12.2174 17.801 12.1053 17.71 12.0102L12.71 7.01016C12.6168 6.91692 12.5061 6.84296 12.3842 6.7925C12.2624 6.74204 12.1319 6.71606 12 6.71606C11.7337 6.71606 11.4783 6.82185 11.29 7.01016C11.1968 7.10339 11.1228 7.21408 11.0723 7.33591C11.0219 7.45773 10.9959 7.5883 10.9959 7.72016C10.9959 7.98646 11.1017 8.24185 11.29 8.43016L14.59 11.7202H7C6.73478 11.7202 6.48043 11.8255 6.29289 12.013C6.10536 12.2006 6 12.4549 6 12.7202C6 12.9854 6.10536 13.2397 6.29289 13.4273C6.48043 13.6148 6.73478 13.7202 7 13.7202H14.59L11.29 17.0102C11.1963 17.1031 11.1219 17.2137 11.0711 17.3356C11.0203 17.4574 10.9942 17.5881 10.9942 17.7202C10.9942 17.8522 11.0203 17.9829 11.0711 18.1047C11.1219 18.2266 11.1963 18.3372 11.29 18.4302C11.383 18.5239 11.4936 18.5983 11.6154 18.649C11.7373 18.6998 11.868 18.726 12 18.726C12.132 18.726 12.2627 18.6998 12.3846 18.649C12.5064 18.5983 12.617 18.5239 12.71 18.4302L17.71 13.4302C17.801 13.3351 17.8724 13.2229 17.92 13.1002C18.02 12.8567 18.02 12.5836 17.92 12.3402Z" fill="#1D6FA3"/>
</svg>
