<svg width="36" height="37" viewBox="0 0 36 37" fill="none" xmlns="http://www.w3.org/2000/svg">
<path d="M0 18.2161C0 8.27494 8.05887 0.216064 18 0.216064V0.216064C27.9411 0.216064 36 8.27494 36 18.2161V18.2161C36 28.1572 27.9411 36.2161 18 36.2161V36.2161C8.05887 36.2161 0 28.1572 0 18.2161V18.2161Z" fill="white"/>
<path d="M21.0271 10.9173V10.9141H21.8711L22.1794 10.9757C22.385 11.0156 22.5717 11.068 22.7394 11.1329C22.9071 11.1977 23.0694 11.2734 23.2263 11.3598C23.3832 11.4462 23.5255 11.5343 23.6532 11.624C23.7798 11.7126 23.8934 11.8066 23.9941 11.906C24.0936 12.0065 24.2489 12.0324 24.4599 11.9838C24.6709 11.9352 24.8981 11.8677 25.1416 11.7812C25.385 11.6948 25.6258 11.5975 25.8638 11.4895C26.1019 11.3814 26.2469 11.3128 26.2988 11.2836C26.3497 11.2534 26.3768 11.2372 26.38 11.235L26.3832 11.2301L26.3995 11.222L26.4157 11.2139L26.4319 11.2058L26.4482 11.1977L26.4514 11.1928L26.4563 11.1896L26.4612 11.1864L26.4644 11.1815L26.4806 11.1766L26.4968 11.1734L26.4936 11.1977L26.4887 11.222L26.4806 11.2463L26.4725 11.2706L26.4644 11.2869L26.4563 11.3031L26.4482 11.3274C26.4427 11.3436 26.4373 11.3652 26.4319 11.3922C26.4265 11.4192 26.3751 11.5273 26.2777 11.7164C26.1803 11.9055 26.0586 12.0973 25.9125 12.2918C25.7665 12.4863 25.6355 12.6332 25.5198 12.7326C25.4029 12.8331 25.3255 12.9034 25.2876 12.9434C25.2498 12.9844 25.2038 13.0222 25.1497 13.0568L25.0685 13.1103L25.0523 13.1184L25.0361 13.1265L25.0328 13.1314L25.028 13.1346L25.0231 13.1379L25.0198 13.1427L25.0036 13.1508L24.9874 13.1589L24.9841 13.1638L24.9793 13.167L24.9744 13.1703L24.9711 13.1751L24.9679 13.18L24.963 13.1832L24.9582 13.1865L24.9549 13.1913H25.0361L25.4905 13.0941C25.7935 13.0293 26.083 12.9509 26.3589 12.8591L26.7971 12.7132L26.8458 12.697L26.8702 12.6889L26.8864 12.6808L26.9026 12.6727L26.9188 12.6646L26.9351 12.6565L26.9675 12.6516L27 12.6484V12.6808L26.9919 12.684L26.9838 12.6889L26.9805 12.6937L26.9757 12.697L26.9708 12.7002L26.9675 12.7051L26.9643 12.71L26.9594 12.7132L26.9546 12.7164L26.9513 12.7213L26.9481 12.7262L26.9432 12.7294L26.9351 12.7456L26.927 12.7618L26.9221 12.7651C26.9199 12.7683 26.8512 12.8601 26.716 13.0406C26.5807 13.2221 26.5077 13.314 26.4968 13.3161C26.486 13.3194 26.4709 13.3356 26.4514 13.3648C26.433 13.395 26.3183 13.5155 26.1073 13.7262C25.8963 13.9369 25.6897 14.1244 25.4873 14.2887C25.2839 14.454 25.1811 14.6571 25.1789 14.8981C25.1757 15.138 25.1632 15.4092 25.1416 15.7118C25.1199 16.0143 25.0794 16.3412 25.0198 16.6924C24.9603 17.0435 24.8684 17.4407 24.7439 17.8837C24.6195 18.3267 24.468 18.7589 24.2894 19.1804C24.1109 19.6018 23.9243 19.98 23.7295 20.3149C23.5347 20.6499 23.3562 20.9336 23.1939 21.1659C23.0316 21.3982 22.8666 21.617 22.6988 21.8223C22.5311 22.0276 22.319 22.2589 22.0626 22.516C21.8051 22.7721 21.6644 22.9126 21.6406 22.9375C21.6157 22.9612 21.5097 23.0498 21.3225 23.2033C21.1363 23.3578 20.9362 23.5123 20.7219 23.6668C20.5088 23.8203 20.3129 23.9483 20.1344 24.051C19.9558 24.1536 19.7405 24.2709 19.4884 24.4027C19.2373 24.5356 18.9657 24.6588 18.6736 24.7723C18.3814 24.8857 18.073 24.9911 17.7484 25.0883C17.4238 25.1856 17.11 25.2612 16.807 25.3152C16.5041 25.3693 16.1605 25.4152 15.7764 25.453L15.2002 25.5097V25.5178H14.1452V25.5097L14.0072 25.5016C13.9152 25.4962 13.8395 25.4908 13.78 25.4854C13.7205 25.48 13.4959 25.4503 13.1064 25.3963C12.7169 25.3423 12.4112 25.2882 12.1894 25.2342C11.9675 25.1802 11.6375 25.0775 11.1993 24.9262C10.761 24.775 10.3861 24.622 10.0745 24.4675C9.76394 24.3141 9.56917 24.2168 9.49017 24.1758C9.41226 24.1358 9.32462 24.0861 9.22723 24.0267L9.08115 23.9375L9.07792 23.9327L9.07304 23.9294L9.06817 23.9262L9.06492 23.9213L9.04869 23.9132L9.03246 23.9051L9.02923 23.9002L9.02435 23.897L9.01948 23.8938L9.01623 23.8889L9.013 23.884L9.00812 23.8808H9V23.8484L9.01623 23.8516L9.03246 23.8565L9.1055 23.8646C9.15419 23.87 9.28675 23.8781 9.50316 23.8889C9.71958 23.8997 9.9495 23.8997 10.193 23.8889C10.4364 23.8781 10.6853 23.8538 10.9396 23.816C11.1939 23.7781 11.4941 23.7133 11.8404 23.6215C12.1867 23.5296 12.5048 23.4205 12.7948 23.294C13.0837 23.1665 13.2893 23.0715 13.4116 23.0088C13.5327 22.9472 13.7178 22.8326 13.9666 22.6652L14.3399 22.4139L14.3432 22.4091L14.3481 22.4058L14.3529 22.4026L14.3562 22.3977L14.3594 22.3929L14.3643 22.3896L14.3692 22.3864L14.3724 22.3815L14.3886 22.3766L14.4049 22.3734L14.4081 22.3572L14.413 22.341L14.4179 22.3377L14.4211 22.3329L14.2913 22.3248C14.2047 22.3194 14.1208 22.314 14.0397 22.3086C13.9585 22.3032 13.8314 22.2789 13.6583 22.2356C13.4851 22.1924 13.2985 22.1276 13.0983 22.0411C12.8981 21.9547 12.7033 21.852 12.514 21.7332C12.3246 21.6143 12.1877 21.5154 12.1033 21.4366C12.02 21.3587 11.9118 21.2485 11.7787 21.1059C11.6467 20.9622 11.532 20.8147 11.4346 20.6634C11.3372 20.5121 11.2442 20.3376 11.1555 20.1399L11.0207 19.8449L11.0126 19.8206L11.0045 19.7963L10.9996 19.7801L10.9964 19.7639L11.0207 19.7671L11.0451 19.772L11.2236 19.7963C11.3427 19.8125 11.5293 19.8179 11.7836 19.8125C12.0379 19.8071 12.2137 19.7963 12.3111 19.7801C12.4085 19.7639 12.468 19.753 12.4896 19.7476L12.5221 19.7395L12.5627 19.7314L12.6032 19.7233L12.6065 19.7185L12.6114 19.7152L12.6162 19.712L12.6195 19.7071L12.587 19.699L12.5546 19.6909L12.5221 19.6828L12.4896 19.6747L12.4572 19.6666C12.4355 19.6612 12.3977 19.6504 12.3436 19.6342C12.2895 19.618 12.1434 19.5585 11.9053 19.4559C11.6673 19.3532 11.4779 19.2533 11.3372 19.156C11.1962 19.0585 11.0618 18.9518 10.9347 18.8367C10.8081 18.72 10.6691 18.5698 10.5176 18.3861C10.3661 18.2024 10.2308 17.989 10.1118 17.7459C9.99279 17.5028 9.90352 17.2705 9.844 17.0489C9.78472 16.8287 9.74561 16.6036 9.72716 16.3763L9.69793 16.0359L9.71416 16.0392L9.73039 16.044L9.74662 16.0521L9.76285 16.0602L9.77908 16.0683L9.79531 16.0764L10.0469 16.1899C10.2146 16.2655 10.4229 16.3304 10.6718 16.3844C10.9207 16.4384 11.0694 16.4681 11.1181 16.4735L11.1912 16.4817H11.3372L11.334 16.4768L11.3291 16.4735L11.3243 16.4703L11.321 16.4654L11.3178 16.4606L11.3129 16.4573L11.308 16.4541L11.3048 16.4492L11.2885 16.4411L11.2723 16.433L11.2691 16.4282L11.2642 16.4249L11.2593 16.4217L11.2561 16.4168L11.2399 16.4087L11.2236 16.4006L11.2204 16.3957C11.2171 16.3936 11.1706 16.359 11.0808 16.292C10.9921 16.2239 10.899 16.1359 10.8016 16.0278C10.7042 15.9198 10.6069 15.8063 10.5095 15.6874C10.4119 15.5683 10.325 15.4409 10.2498 15.3065C10.174 15.1715 10.094 14.9997 10.0096 14.7911C9.92625 14.5836 9.86294 14.3746 9.81966 14.1638C9.77639 13.9531 9.75204 13.7451 9.74662 13.5398C9.74121 13.3345 9.74662 13.1589 9.76285 13.0131C9.77908 12.8672 9.81154 12.7024 9.86023 12.5187C9.90893 12.335 9.97927 12.1405 10.0712 11.9352L10.2092 11.6272L10.2173 11.6029L10.2254 11.5786L10.2303 11.5754L10.2335 11.5705L10.2368 11.5656L10.2417 11.5624L10.2465 11.5656L10.2498 11.5705L10.253 11.5754L10.2579 11.5786L10.2628 11.5818L10.266 11.5867L10.2693 11.5916L10.2741 11.5948L10.2822 11.611L10.2904 11.6272L10.2952 11.6305L10.2985 11.6353L10.5176 11.8785C10.6637 12.0405 10.8368 12.2215 11.037 12.4214C11.2372 12.6213 11.3481 12.7251 11.3697 12.7326C11.3914 12.7413 11.4184 12.7661 11.4509 12.8072C11.4833 12.8472 11.5915 12.9428 11.7755 13.0941C11.9594 13.2454 12.2002 13.421 12.4977 13.6209C12.7953 13.8208 13.1253 14.018 13.4878 14.2125C13.8503 14.407 14.2399 14.5826 14.6564 14.7392C15.073 14.8959 15.3652 14.9986 15.5329 15.0472C15.7006 15.0958 15.9874 15.158 16.3931 15.2336C16.7989 15.3092 17.1046 15.3579 17.3102 15.3795C17.5158 15.4011 17.6565 15.4135 17.7322 15.4168L17.8458 15.42L17.8426 15.3957L17.8377 15.3714L17.8052 15.1688C17.7836 15.0337 17.7728 14.8446 17.7728 14.6015C17.7728 14.3583 17.7917 14.1341 17.8296 13.9288C17.8675 13.7235 17.9243 13.5155 18 13.3048C18.0757 13.0941 18.1499 12.925 18.2224 12.7975C18.296 12.6711 18.3923 12.5268 18.5113 12.3647C18.6303 12.2026 18.7845 12.0351 18.9739 11.8623C19.1632 11.6894 19.3796 11.5354 19.6231 11.4003C19.8665 11.2653 20.0911 11.1626 20.2967 11.0924C20.5023 11.0221 20.6754 10.9762 20.8161 10.9546C20.9567 10.933 21.0271 10.9205 21.0271 10.9173V10.9173Z" fill="#3A3D43"/>
</svg>
